<?xml version="1.0" encoding="utf-8"?>
<!-- Generator: Adobe Illustrator 23.0.3, SVG Export Plug-In . SVG Version: 6.00 Build 0)  -->
<svg version="1.1" xmlns="http://www.w3.org/2000/svg" xmlns:xlink="http://www.w3.org/1999/xlink" x="0px" y="0px"
	 viewBox="0 0 500 500" style="enable-background:new 0 0 500 500;" xml:space="preserve">
<style type="text/css">
	.st0{display:none;}
	.st1{display:inline;fill:#12112D;}
	.st2{display:inline;fill:#98F4ED;}
	.st3{font-family:'OpenSans-Light';}
	.st4{font-size:10.7604px;}
	.st5{letter-spacing:1.8;}
	.st6{display:inline;fill:#FFFFFF;}
	.st7{font-family:'Nickainley-Normal';}
	.st8{font-size:45.2861px;}
	.st9{display:inline;}
	.st10{fill:#FFFFFF;stroke:#FFFFFF;stroke-width:0.5981;stroke-miterlimit:10;}
	.st11{fill:#FFFFFF;stroke:#FFFFFF;stroke-width:0.6722;stroke-miterlimit:10;}
	.st12{opacity:0.13;fill:#FFFFFF;stroke:#FFFFFF;stroke-width:0.3598;stroke-miterlimit:10;}
	.st13{opacity:0.13;fill:#FFFFFF;stroke:#FFFFFF;stroke-width:0.155;stroke-miterlimit:10;}
	.st14{opacity:0.13;fill:#FFFFFF;stroke:#FFFFFF;stroke-width:0.2745;stroke-miterlimit:10;}
	.st15{opacity:0.13;fill:#FFFFFF;stroke:#FFFFFF;stroke-width:0.4885;stroke-miterlimit:10;}
	.st16{opacity:0.36;fill:#FFFFFF;stroke:#FFFFFF;stroke-width:0.1824;stroke-miterlimit:10;}
	.st17{fill:#D6B577;}
	.st18{fill:#FFB026;}
	.st19{fill:#FFD258;}
	.st20{fill:#FFFFFF;}
	.st21{fill:#98F4ED;}
	.st22{fill:#3A3867;}
	.st23{fill:#032560;}
	.st24{fill:#FFAB3D;}
	.st25{fill:#FFFFFF;stroke:#FFFFFF;stroke-width:0.7428;stroke-miterlimit:10;}
	.st26{fill:#FFFFFF;stroke:#FFFFFF;stroke-width:0.5499;stroke-miterlimit:10;}
	.st27{opacity:0.13;fill:#FFFFFF;stroke:#FFFFFF;stroke-width:0.2493;stroke-miterlimit:10;}
	.st28{fill:#5F63C0;}
	.st29{fill:#FB4A4C;}
	.st30{fill:#FFF0BB;}
	.st31{fill:#00B57C;}
	.st32{display:inline;fill:#FFFFFF;stroke:#FFFFFF;stroke-width:0.6716;stroke-miterlimit:10;}
	.st33{display:inline;fill:#FFFFFF;stroke:#FFFFFF;stroke-width:0.488;stroke-miterlimit:10;}
	.st34{display:inline;opacity:0.13;fill:#FFFFFF;stroke:#FFFFFF;stroke-width:0.2618;stroke-miterlimit:10;}
	.st35{display:inline;opacity:0.13;fill:#FFFFFF;stroke:#FFFFFF;stroke-width:0.2525;stroke-miterlimit:10;}
	.st36{display:inline;opacity:0.13;fill:#FFFFFF;stroke:#FFFFFF;stroke-width:0.3416;stroke-miterlimit:10;}
	.st37{display:inline;opacity:0.13;fill:#FFFFFF;stroke:#FFFFFF;stroke-width:0.4885;stroke-miterlimit:10;}
	.st38{display:inline;opacity:0.36;fill:#FFFFFF;stroke:#FFFFFF;stroke-width:0.1824;stroke-miterlimit:10;}
	.st39{fill:#009559;}
	.st40{fill:#645EB2;}
	.st41{opacity:0.25;fill:#84CEC7;}
	.st42{fill:#FFFFFF;stroke:#FFFFFF;stroke-width:0.4899;stroke-miterlimit:10;}
	.st43{fill:#FFFFFF;stroke:#FFFFFF;stroke-width:0.4731;stroke-miterlimit:10;}
	.st44{opacity:0.13;fill:#FFFFFF;stroke:#FFFFFF;stroke-width:0.3767;stroke-miterlimit:10;}
	.st45{opacity:0.13;fill:#FFFFFF;stroke:#FFFFFF;stroke-width:0.2255;stroke-miterlimit:10;}
	.st46{opacity:0.13;fill:#FFFFFF;stroke:#FFFFFF;stroke-width:0.4628;stroke-miterlimit:10;}
	.st47{opacity:0.13;fill:#FFFFFF;stroke:#FFFFFF;stroke-width:0.3836;stroke-miterlimit:10;}
	.st48{opacity:0.13;fill:#FFFFFF;stroke:#FFFFFF;stroke-width:0.2893;stroke-miterlimit:10;}
	.st49{fill:#00C1B7;}
	.st50{fill:#F9B2B6;}
	.st51{fill:#F7FAFB;}
</style>
<g id="Background" class="st0">
	<rect x="0" y="0" class="st1" width="500" height="500"/>
</g>
<g id="Objects">
	<g class="st0">
		<text transform="matrix(1.1 0 0 1.1 206.0744 96.7509)" class="st2 st3 st4 st5">COLLECTION</text>
		<text transform="matrix(0.9 0 0 1 161.7035 75.2834)" class="st6 st7 st8">spaceship</text>
	</g>
	<g class="st0">
		<g class="st9">
			<path class="st10" d="M423.3,325.3c0,0,4.9-1.4,6.8-6.2c0,0,1.4,4.7,6.3,5.9c0,0-4.7,3.2-5.9,7.1
				C430.4,332,429.8,327.1,423.3,325.3z"/>
			<path class="st11" d="M320.2,284.8c0,0-5.5-1.5-7.6-7c0,0-1.6,5.3-7,6.6c0,0,5.3,3.6,6.7,8C312.2,292.3,313,286.7,320.2,284.8z"
				/>
			<path class="st12" d="M286.1,258.9c0.2-0.1,0.4-0.3,0.5-0.5c0.8-1,0.7-2.7-0.6-3.4c-1.5-0.8-3.4,0.2-3.5,1.9
				C282.5,258.6,284.6,259.9,286.1,258.9z"/>
			<path class="st13" d="M421.9,293c-0.1,0.1-0.2,0.1-0.2,0.2c-0.4,0.4-0.3,1.2,0.2,1.5c0.6,0.4,1.5-0.1,1.5-0.8
				C423.5,293.1,422.5,292.6,421.9,293z"/>
			<path class="st14" d="M298,397.2c-0.2,0.1-0.3,0.2-0.4,0.4c-0.6,0.8-0.5,2.1,0.4,2.6c1.1,0.6,2.6-0.1,2.7-1.5
				C300.7,397.4,299.1,396.4,298,397.2z"/>
			<polygon class="st15" points="299.4,319.5 298.7,324 294.1,324.8 298.5,326.4 299.4,332.4 300.7,326.7 305.5,325.9 301,324.2 			
				"/>
			<polygon class="st15" points="405,269.7 404.3,274.1 399.7,274.9 404.1,276.5 405,282.5 406.2,276.9 411.1,276 406.5,274.3 			
				"/>
			<polygon class="st15" points="386.5,403 385.7,407.5 381.2,408.3 385.6,409.9 386.5,415.9 387.7,410.2 392.5,409.4 388,407.7 			
				"/>
			<path class="st16" d="M429.8,391.9c-0.5-0.1-1-0.3-1.6-0.5c-0.1-0.6,0.1-1.3,0-1.9c0-0.2-0.3-0.2-0.4,0c-0.1,0.6-0.3,1.1-0.5,1.7
				c-0.6,0-1.1-0.1-1.7,0c-0.2,0-0.2,0.3,0,0.4c0.5,0.2,1.1,0.3,1.6,0.5c0,0.6-0.2,1.2-0.2,1.9c0,0.2,0.3,0.2,0.4,0
				c0.2-0.6,0.4-1.2,0.7-1.7c0.5,0,1.1,0.1,1.6,0C429.9,392.3,429.9,392,429.8,391.9z"/>
		</g>
		<g class="st9">
			<g>
				<g>
					<path class="st17" d="M318.1,371.6c0,0,14.2,20.4,45.6,22c38.2,1.9,55.4-40.7,44.3-21.2L318.1,371.6z"/>
					<g>
						<path class="st17" d="M328.6,404.7l-1.2-0.2c2.2-13.1,8.2-19.5,12.8-22.5c5-3.3,9.4-3.5,9.6-3.5l0,1.3
							C349.1,379.7,332.7,380.6,328.6,404.7z"/>
						<path class="st17" d="M397.6,405c-3.9-24.1-20.8-25.2-21-25.2l0.1-1.3c0.2,0,18.1,1.1,22.2,26.2L397.6,405z"/>
					</g>
				</g>
				<g>
					<g>
						<path class="st18" d="M311.9,359.3l-18.3,0.8l0.7,9.5c0,0,31.1,15.1,73.8,13.7s64.5-12.8,64.5-12.8l3.1-11.8L311.9,359.3z"/>
						<path class="st19" d="M360.5,344.8c0,0-33.6-1.1-52.2,5.3c-18.6,6.4-20.7,11-2.1,16.8c15.7,4.9,44.8,9.5,60.6,8.9
							c15.8-0.6,38.1-5.2,51.3-7.9c4.9-1,37.6-9.4-2.2-18.2C389.3,343.7,360.5,344.8,360.5,344.8z"/>
					</g>
					<g>
						<circle class="st20" cx="304.3" cy="357.9" r="3.2"/>
						<circle class="st20" cx="316.1" cy="362.7" r="3.2"/>
						<path class="st20" d="M334,366c0-1.8-1.5-3.2-3.2-3.2c-1.8,0-3.2,1.5-3.2,3.2s1.5,3.2,3.2,3.2C332.5,369.2,334,367.8,334,366z
							"/>
						<circle class="st20" cx="346.8" cy="368.5" r="3.2"/>
						<circle class="st20" cx="361.3" cy="370" r="3.2"/>
						<circle class="st20" cx="377.1" cy="368.9" r="3.2"/>
						<circle class="st20" cx="390.8" cy="367.2" r="3.2"/>
						<circle class="st20" cx="406.6" cy="363.3" r="3.2"/>
						<path class="st20" d="M422.8,358.5c0-1.8-1.5-3.2-3.2-3.2c-1.8,0-3.2,1.5-3.2,3.2s1.5,3.2,3.2,3.2
							C421.3,361.8,422.8,360.3,422.8,358.5z"/>
					</g>
				</g>
			</g>
			<g>
				<path class="st19" d="M369,268c0-2.2-1.7-3.9-3.9-3.9c-2.2,0-3.9,1.7-3.9,3.9c0,1.9,1.4,3.5,3.1,3.8l0,29.8h1.3l0-29.8
					C367.5,271.6,369,270,369,268z"/>
				<path class="st21" d="M362.5,362.7c-15.5,0-33.5-2.9-52.8-11.4l-0.3-0.1l0-0.3c0-0.1-1.2-14.5,4.8-30.1
					c4.4-11.5,13.4-25.7,32-34.3c15.1-7,33.2-5.6,46.2,4.4c0.5,0.4,0.9,0.7,1.4,1.1c13.9,11.6,21.6,31,23,57.6l0,0.3l-0.3,0.2
					C416.2,350.2,394.7,362.7,362.5,362.7z"/>
				<g>
					<path class="st22" d="M410.6,353c-1.1-5.6-2.8-13.3-5.7-21.8c-5.5-16.4-17.5-40.7-42.5-37c-38.4,5.7-41.9,45.3-41.7,61.4
						c15.1,5.2,29.3,7.1,41.8,7.1C384.9,362.7,402.1,356.7,410.6,353z"/>
					<g>
						<path class="st22" d="M334.3,302.9c0-1.1-0.9-1.9-1.9-1.9c-1.1,0-1.9,0.9-1.9,1.9c0,1.1,0.9,1.9,1.9,1.9
							c0.3,0,0.6-0.1,0.9-0.2l6,5.8l0.9-0.9l-6-5.8C334.2,303.5,334.3,303.2,334.3,302.9z"/>
						<path class="st22" d="M339.4,297.8c0-1.1-0.9-1.9-1.9-1.9c-1.1,0-1.9,0.9-1.9,1.9c0,1.1,0.9,1.9,1.9,1.9c0.1,0,0.3,0,0.4,0
							l4,6l1-0.7l-4-6C339.2,298.7,339.4,298.2,339.4,297.8z"/>
						<path class="st22" d="M345.6,293.8c0-1.1-0.8-2-1.8-2c-1.1,0-2,0.8-2,1.8c0,1.1,0.8,2,1.8,2c0.2,0,0.4,0,0.5-0.1l3,6.3
							l1.1-0.5l-3.1-6.5C345.4,294.6,345.5,294.3,345.6,293.8z"/>
						<path class="st22" d="M353.5,290.5c0.4-1-0.1-2.1-1.1-2.5c-1-0.4-2.1,0.1-2.5,1.1c-0.4,1,0.1,2.1,1.1,2.5
							c0.2,0.1,0.4,0.1,0.6,0.1l2.3,8.1l1.2-0.3l-2.3-8.1C353.1,291.2,353.3,290.9,353.5,290.5z"/>
						<path class="st22" d="M398.4,302.4c-1.1-0.1-2,0.7-2.1,1.8c0,0.3,0,0.6,0.1,0.8l-6.1,6l0.9,0.9l6-5.9c0.3,0.1,0.5,0.2,0.8,0.3
							c1.1,0.1,2-0.7,2.1-1.8C400.3,303.4,399.5,302.5,398.4,302.4z"/>
						<path class="st22" d="M392.2,299.5c1.1,0.1,2-0.7,2.1-1.8c0.1-1.1-0.7-2-1.8-2.1c-1.1-0.1-2,0.7-2.1,1.8
							c0,0.4,0.1,0.8,0.3,1.2l-5.1,6.7l1,0.8l5.1-6.7C391.8,299.5,392,299.5,392.2,299.5z"/>
						<path class="st22" d="M387.4,292.6c0.1-1.1-0.7-2-1.8-2.1c-1.1-0.1-2,0.7-2.1,1.8c0,0.6,0.2,1.1,0.5,1.5l-3.6,7.6l1.1,0.5
							l3.5-7.6c0,0,0.1,0,0.1,0C386.4,294.5,387.3,293.7,387.4,292.6z"/>
						<path class="st22" d="M377.1,286.7c-1.1-0.1-2,0.7-2.1,1.8c-0.1,0.8,0.3,1.4,1,1.8l-2.4,7.9l1.2,0.4l2.4-8
							c0.9-0.1,1.6-0.9,1.7-1.8C379,287.7,378.2,286.7,377.1,286.7z"/>
						<path class="st22" d="M361.3,287.9c0-1.1-0.9-1.9-1.9-1.9c-1.1,0-1.9,0.9-1.9,1.9c0,1,0.7,1.8,1.7,1.9l1.4,8.3l1.2-0.2
							l-1.4-8.4C360.9,289.2,361.3,288.6,361.3,287.9z"/>
						<path class="st22" d="M368.2,285.3c-1.1,0-1.9,0.9-1.9,1.9c0,0.8,0.5,1.5,1.2,1.8l0.4,8.8l1.3-0.1l-0.4-8.7
							c0.8-0.2,1.4-1,1.4-1.8C370.2,286.2,369.3,285.3,368.2,285.3z"/>
					</g>
				</g>
				<g>
					<g>
						<path class="st23" d="M358.1,334.5c0.9,1.5,2.3,2.9,4,3.5c3.2,1.3,5.9-0.9,7.8-3.4c0.7-0.9-0.9-1.8-1.6-0.9
							c-1.6,2.2-3.9,3.8-6.5,2.1c-0.8-0.6-1.6-1.4-2.1-2.2C359.1,332.6,357.5,333.5,358.1,334.5L358.1,334.5z"/>
						<g>
							<path class="st23" d="M352.4,323.8c0,1.1-0.9,2.1-2.1,2.1c-1.1,0-2.1-0.9-2.1-2.1c0-1.1,0.9-2.1,2.1-2.1
								C351.5,321.7,352.4,322.7,352.4,323.8z"/>
							<path class="st23" d="M379.1,323.8c0,1.1-0.9,2.1-2.1,2.1c-1.1,0-2.1-0.9-2.1-2.1c0-1.1,0.9-2.1,2.1-2.1
								C378.2,321.7,379.1,322.7,379.1,323.8z"/>
						</g>
					</g>
					<g>
						<path class="st24" d="M351,332.6c0,2-1.9,3.7-4.2,3.7s-4.2-1.7-4.2-3.7c0-2,1.9-3.7,4.2-3.7S351,330.6,351,332.6z"/>
						<path class="st24" d="M383.7,332.6c0,2-1.9,3.7-4.2,3.7c-2.3,0-4.2-1.7-4.2-3.7c0-2,1.9-3.7,4.2-3.7
							C381.9,328.9,383.7,330.6,383.7,332.6z"/>
					</g>
				</g>
			</g>
		</g>
	</g>
	<g class="st0">
		<g class="st9">
			<path class="st25" d="M408,126.6c0,0,6.1-1.7,8.4-7.8c0,0,1.7,5.8,7.8,7.3c0,0-5.9,4-7.4,8.8C416.9,134.9,416,128.7,408,126.6z"
				/>
			<path class="st26" d="M282.7,151.8c0,0,4.5-1.3,6.2-5.7c0,0,1.3,4.3,5.8,5.4c0,0-4.3,3-5.5,6.5
				C289.2,158,288.6,153.4,282.7,151.8z"/>
			<path class="st27" d="M372.2,96.7c-0.1,0.1-0.3,0.2-0.4,0.3c-0.6,0.7-0.5,1.9,0.4,2.4c1,0.6,2.4-0.1,2.4-1.3
				C374.7,96.8,373.2,96,372.2,96.7z"/>
			<polygon class="st15" points="327,109.7 326.2,114.2 321.7,115 326.1,116.6 327,122.6 328.2,116.9 333.1,116.1 328.5,114.4 			
				"/>
			<polygon class="st15" points="432.3,173.6 431.5,178 427,178.9 431.4,180.4 432.3,186.4 433.5,180.8 438.3,179.9 433.8,178.3 			
				"/>
			<path class="st16" d="M383.9,115.1c-0.5-0.1-1-0.3-1.6-0.5c-0.1-0.6,0.1-1.3,0-1.9c0-0.2-0.3-0.2-0.4,0c-0.1,0.6-0.3,1.1-0.5,1.7
				c-0.6,0-1.1-0.1-1.7,0c-0.2,0-0.2,0.3,0,0.4c0.5,0.2,1.1,0.3,1.6,0.5c0,0.6-0.2,1.2-0.2,1.9c0,0.2,0.3,0.2,0.4,0
				c0.2-0.6,0.4-1.2,0.7-1.7c0.5,0,1.1,0.1,1.6,0C384,115.4,384.1,115.1,383.9,115.1z"/>
		</g>
		<g class="st9">
			
				<ellipse transform="matrix(8.740296e-02 -0.9962 0.9962 8.740296e-02 63.5794 526.8978)" class="st18" cx="319.4" cy="228.7" rx="7" ry="10.8"/>
			<ellipse class="st18" cx="360" cy="232.5" rx="13.3" ry="8.1"/>
			<path class="st18" d="M412.1,227.4c0.6,3-3.6,7.6-9.7,8.7c-6.1,1.1-11.7-1.7-12.3-4.7c-0.6-3,3.9-6.4,10-7.5
				C406.2,222.8,411.6,224.4,412.1,227.4z"/>
			<path class="st28" d="M449.7,217.4c0,0-9.2-19.7-72.4-28.7l-17,0.4l-17-0.4c-63.2,8.9-72.4,28.7-72.4,28.7s38.5,13.6,89.4,13.2
				C411.2,230.9,449.7,217.4,449.7,217.4z"/>
			<g>
				<path class="st29" d="M431.1,212c0.5,1.7-1.5,3.7-4.4,4.5c-2.9,0.8-5.6,0-6.1-1.7s1.5-3.7,4.4-4.5
					C427.9,209.6,430.7,210.3,431.1,212z"/>
				<path class="st29" d="M400.7,217.8c0.2,1.8-2.1,3.4-5.1,3.7c-3,0.3-5.6-0.9-5.7-2.6c-0.2-1.8,2.1-3.4,5.1-3.7
					C398,214.9,400.6,216.1,400.7,217.8z"/>
				<path class="st29" d="M365.1,220.6c0,1.8-2.4,3.2-5.4,3.2c-3,0-5.5-1.4-5.5-3.2c0-1.8,2.4-3.2,5.4-3.2
					C362.7,217.4,365.1,218.8,365.1,220.6z"/>
				<path class="st29" d="M330.5,218.5c-0.3,1.7-3,2.7-5.9,2.1c-3-0.5-5.1-2.4-4.8-4.1c0.3-1.7,3-2.7,5.9-2.1
					C328.6,214.9,330.8,216.7,330.5,218.5z"/>
				<path class="st29" d="M300,211.1c-0.2,1.7-2.8,2.8-5.8,2.5c-3-0.4-5.2-2.1-5-3.9c0.2-1.7,2.8-2.8,5.8-2.5
					C298,207.7,300.2,209.4,300,211.1z"/>
			</g>
			<path class="st30" d="M358.9,214c-16.4,0-35.3-3.2-55.7-12.6l-0.3-0.1l0-0.3c0-0.2-1.2-16,5-33.3c4.6-12.7,14.1-28.4,33.7-37.9
				c15.9-7.7,35-6.2,48.7,4.9c0.5,0.4,1,0.8,1.4,1.2c14.7,12.8,22.8,34.3,24.3,63.8l0,0.3l-0.3,0.2C415.5,200.2,392.8,214,358.9,214
				z"/>
			<path class="st31" d="M406.7,187.9c-1.7-4.7-4-10-7-15.2c1.8-0.7,3.1-2.4,3.1-4.5c0-2.7-2.2-4.8-4.8-4.8c-1.4,0-2.6,0.6-3.5,1.5
				c-8.2-10.5-20.2-18.6-37.3-16.2c-15.1,2-25.5,8.1-32.8,16c-0.9-0.8-2-1.3-3.2-1.3c-2.7,0-4.8,2.2-4.8,4.8c0,1.7,0.9,3.2,2.3,4.1
				c-6.4,10.3-8.9,22.1-9.8,31.5C327,211.3,344,214,358.9,214c25.2,0,44.1-7.6,52.4-11.6C410.1,198,408.6,193.1,406.7,187.9z"/>
			<g>
				<g>
					<path class="st23" d="M354.4,185.4c0.9,1.5,2.3,2.9,4,3.5c3.2,1.3,5.9-0.9,7.8-3.4c0.7-0.9-0.9-1.8-1.6-0.9
						c-1.6,2.2-3.9,3.8-6.5,2.1c-0.8-0.6-1.6-1.4-2.1-2.2C355.3,183.5,353.7,184.4,354.4,185.4L354.4,185.4z"/>
					<g>
						<path class="st23" d="M348.7,174.8c0,1.1-0.9,2.1-2.1,2.1c-1.1,0-2.1-0.9-2.1-2.1s0.9-2.1,2.1-2.1
							C347.7,172.7,348.7,173.6,348.7,174.8z"/>
						<path class="st23" d="M375.4,174.8c0,1.1-0.9,2.1-2.1,2.1c-1.1,0-2.1-0.9-2.1-2.1s0.9-2.1,2.1-2.1
							C374.4,172.7,375.4,173.6,375.4,174.8z"/>
					</g>
				</g>
				<g>
					<path class="st24" d="M347.3,183.6c0,2-1.9,3.7-4.2,3.7c-2.3,0-4.2-1.7-4.2-3.7c0-2,1.9-3.7,4.2-3.7
						C345.4,179.9,347.3,181.5,347.3,183.6z"/>
					<path class="st24" d="M380,183.6c0,2-1.9,3.7-4.2,3.7c-2.3,0-4.2-1.7-4.2-3.7c0-2,1.9-3.7,4.2-3.7
						C378.1,179.9,380,181.5,380,183.6z"/>
				</g>
			</g>
		</g>
	</g>
	<g>
		<g class="st0">
			<path class="st32" d="M199.7,140.7c0,0,5.5-1.5,7.6-7c0,0,1.6,5.3,7,6.6c0,0-5.3,3.6-6.7,8C207.6,148.3,206.9,142.7,199.7,140.7z
				"/>
			<path class="st33" d="M85.1,147.3c0,0-4-1.1-5.5-5.1c0,0-1.1,3.8-5.1,4.8c0,0,3.9,2.6,4.8,5.8C79.3,152.8,79.8,148.7,85.1,147.3z
				"/>
			<path class="st34" d="M230.8,172.3c-0.1,0.1-0.3,0.2-0.4,0.4c-0.6,0.7-0.5,2,0.4,2.5c1.1,0.6,2.5-0.1,2.5-1.4
				C233.4,172.5,231.9,171.6,230.8,172.3z"/>
			<path class="st35" d="M87.5,129.7c-0.1,0.1-0.3,0.2-0.4,0.4c-0.6,0.7-0.5,1.9,0.4,2.4c1.1,0.6,2.4-0.1,2.4-1.4
				C90.1,129.9,88.5,129,87.5,129.7z"/>
			<path class="st36" d="M125.9,99.8c-0.2,0.1-0.4,0.3-0.5,0.5c-0.8,0.9-0.6,2.6,0.5,3.2c1.4,0.8,3.2-0.2,3.3-1.8
				C129.3,100.1,127.3,98.9,125.9,99.8z"/>
			<polygon class="st37" points="241.9,211.2 241.1,215.6 236.6,216.5 241,218 241.9,224 243.1,218.4 248,217.5 243.4,215.8 			"/>
			<polygon class="st37" points="168.4,97.2 167.6,101.6 163.1,102.5 167.5,104.1 168.4,110.1 169.6,104.4 174.5,103.6 169.9,101.9 
							"/>
			<polygon class="st37" points="55.4,212.4 54.6,216.8 50.1,217.6 54.5,219.2 55.4,225.2 56.6,219.5 61.5,218.7 56.9,217 			"/>
			<path class="st38" d="M57,183.9c-0.5,0-1.1,0-1.6,0c-0.3-0.6-0.3-1.2-0.6-1.8c-0.1-0.2-0.4-0.1-0.4,0.1c0,0.6,0.1,1.2,0.1,1.8
				c-0.5,0.2-1.1,0.2-1.6,0.5c-0.2,0.1-0.1,0.4,0.1,0.4c0.6,0,1.1,0,1.7,0c0.2,0.6,0.2,1.2,0.4,1.8c0.1,0.2,0.4,0.1,0.4-0.1
				c0-0.6,0.1-1.2,0.1-1.9c0.5-0.2,1.1-0.2,1.6-0.5C57.3,184.2,57.2,183.9,57,183.9z"/>
		</g>
		<g>
			<g>
				<path class="st39" d="M98.1,230.2L98,231c-0.3,3.7-3.2,16.6-3.2,16.6l3.6,1.7c0,0,2.4-2.9,10.5-15.2l1-0.8L98.1,230.2z"/>
				<path class="st39" d="M135.7,234.3l2,18.7l4.7-0.1l2.4-18.7H135.7z"/>
				<path class="st39" d="M186.5,229.8l-8.7,4.1l13,12.9l3.4-2.9L186.5,229.8z"/>
			</g>
			<ellipse class="st31" cx="144.5" cy="201.5" rx="84.7" ry="36.7"/>
			<g>
				
					<ellipse transform="matrix(4.369134e-02 -0.999 0.999 4.369134e-02 -84.5899 357.2882)" class="st40" cx="144.3" cy="222.8" rx="3.9" ry="6"/>
				<path class="st40" d="M188.9,219.1c-0.1,1.9-2.9,3.2-6.3,3.1c-3.4-0.1-6.1-1.8-6-3.6c0.1-1.9,2.9-3.2,6.3-3.1
					C186.2,215.6,188.9,217.2,188.9,219.1z"/>
				<path class="st40" d="M214.7,205.2c-0.1,2-3,3.4-6.5,3.3c-3.5-0.2-6.3-1.9-6.2-3.9c0.1-2,3-3.4,6.5-3.3
					C212,201.5,214.8,203.3,214.7,205.2z"/>
				<path class="st40" d="M103.3,217.6c0.1-2,3-3.4,6.5-3.3c3.5,0.2,6.3,1.9,6.2,3.9c-0.1,2-3,3.4-6.5,3.3
					C106,221.3,103.2,219.6,103.3,217.6z"/>
				<path class="st40" d="M74.4,205.6c0.1-1.9,3.2-3.3,6.9-3.2c3.7,0.2,6.6,1.8,6.6,3.8c-0.1,1.9-3.2,3.3-6.9,3.2
					C77.2,209.2,74.3,207.5,74.4,205.6z"/>
			</g>
			<g>
				<path class="st21" d="M143.9,208.7c-17.8,0-38.4-3.5-60.6-13.7l-0.3-0.2l0-0.4c0-0.2-1.3-17.4,5.5-36.3
					c5-13.9,15.4-30.9,36.7-41.3c17.3-8.4,38.1-6.8,53,5.3c0.5,0.4,1.1,0.9,1.6,1.3c16,13.9,24.9,37.3,26.4,69.4l0,0.4l-0.3,0.2
					C205.6,193.8,180.9,208.7,143.9,208.7z"/>
				<path class="st30" d="M188.3,176.4c-4.2-10.2-11.9-23.9-25.5-30.1c1.1-2.8,3.1-7.2,4.2-9.6c0.1,0,0.2,0,0.3,0c1.1,0,2-0.9,2-2
					c0-1.1-0.9-2-2-2c-1.1,0-2,0.9-2,2c0,0.6,0.2,1.1,0.6,1.4c-1.1,2.4-3.1,6.7-4.2,9.6c-5-2.1-10.8-3.2-17.4-2.8l-0.4-14.1
					c0.8-0.3,1.3-1,1.3-1.9c0-1.1-0.9-2-2-2s-2,0.9-2,2c0,0.9,0.6,1.7,1.4,1.9l0.4,14.2c-0.5,0-1,0.1-1.5,0.1
					c-6.2,0.7-11.5,2.2-16.1,4c-1.5-4.1-3.7-8.2-4.9-10.3c0.3-0.4,0.5-0.8,0.5-1.4c0-1.1-0.9-2-2-2c-1.1,0-2,0.9-2,2
					c0,1.1,0.9,2,2,2c0.1,0,0.3,0,0.4,0c1.2,2.2,3.4,6.2,4.8,10.2c-27.4,11.9-29,41.1-28.6,52.2c17.5,6.4,33.8,8.7,48.3,8.7
					c22.6,0,40.6-5.6,51.2-10C194.1,193.8,192,185.6,188.3,176.4z"/>
				<path class="st41" d="M132.5,171.2c0.6-20.4,4-41.5,13.6-59.5c-7.1,0.3-14.2,2-20.9,5.2c-21.4,10.4-31.7,27.4-36.7,41.3
					C81.6,177,83,194.3,83,194.5l0,0.4l0.3,0.2c18.6,8.6,36.2,12.5,51.9,13.5C133.1,196.2,132.1,183.7,132.5,171.2z"/>
				<g>
					<g>
						<path class="st23" d="M137,173c0.9,1.5,2.3,2.9,4,3.5c3.2,1.3,5.9-0.9,7.8-3.4c0.7-0.9-0.9-1.8-1.6-0.9
							c-1.6,2.2-3.9,3.8-6.5,2.1c-0.8-0.6-1.6-1.4-2.1-2.2C138,171.1,136.4,172,137,173L137,173z"/>
						<g>
							<path class="st23" d="M131.3,162.3c0,1.1-0.9,2.1-2.1,2.1c-1.1,0-2.1-0.9-2.1-2.1c0-1.1,0.9-2.1,2.1-2.1
								C130.4,160.2,131.3,161.1,131.3,162.3z"/>
							<path class="st23" d="M158,162.3c0,1.1-0.9,2.1-2.1,2.1c-1.1,0-2.1-0.9-2.1-2.1c0-1.1,0.9-2.1,2.1-2.1
								C157.1,160.2,158,161.1,158,162.3z"/>
						</g>
					</g>
					<g>
						<path class="st24" d="M130,171.1c0,2-1.9,3.7-4.2,3.7c-2.3,0-4.2-1.7-4.2-3.7s1.9-3.7,4.2-3.7
							C128.1,167.4,130,169.1,130,171.1z"/>
						<path class="st24" d="M162.7,171.1c0,2-1.9,3.7-4.2,3.7c-2.3,0-4.2-1.7-4.2-3.7s1.9-3.7,4.2-3.7
							C160.8,167.4,162.7,169.1,162.7,171.1z"/>
					</g>
				</g>
			</g>
		</g>
	</g>
	<g class="st0">
		<g class="st9">
			<path class="st42" d="M193.7,296.9c0,0,4-1.1,5.5-5.1c0,0,1.1,3.8,5.1,4.8c0,0-3.9,2.6-4.9,5.8
				C199.5,302.4,198.9,298.4,193.7,296.9z"/>
			<path class="st43" d="M91.1,308.6c0,0-3.9-1.1-5.3-4.9c0,0-1.1,3.7-5,4.6c0,0,3.7,2.5,4.7,5.6C85.5,313.9,86,309.9,91.1,308.6z"
				/>
			<path class="st44" d="M220.3,322.1c-0.2,0.1-0.4,0.3-0.6,0.5c-0.9,1-0.7,2.9,0.6,3.6c1.6,0.9,3.6-0.2,3.6-2
				C224.1,322.3,221.9,321.1,220.3,322.1z"/>
			<path class="st45" d="M173.1,390c-0.1,0.1-0.2,0.2-0.3,0.3c-0.5,0.6-0.4,1.7,0.4,2.1c0.9,0.5,2.1-0.1,2.2-1.2
				C175.4,390.2,174,389.4,173.1,390z"/>
			<path class="st46" d="M48.2,334.2c-0.3,0.2-0.5,0.4-0.7,0.6c-1.1,1.3-0.8,3.5,0.7,4.4c1.9,1.1,4.4-0.2,4.5-2.5
				C52.8,334.5,50.1,332.9,48.2,334.2z"/>
			<polygon class="st15" points="169.8,258.3 169,262.7 164.5,263.6 168.9,265.1 169.8,271.1 171,265.5 175.8,264.6 171.3,263 			
				"/>
			<polygon class="st47" points="130.4,406.3 129.8,409.8 126.2,410.5 129.7,411.7 130.4,416.4 131.4,412 135.2,411.3 131.6,410 			
				"/>
			<path class="st16" d="M125.9,262.7c-0.4-0.3-0.8-0.7-1.3-1c0.2-0.6,0.6-1.1,0.7-1.8c0-0.2-0.2-0.3-0.3-0.1
				c-0.4,0.5-0.7,0.9-1.1,1.4c-0.5-0.2-1-0.5-1.6-0.7c-0.2,0-0.3,0.2-0.2,0.3c0.4,0.3,0.9,0.7,1.3,1.1c-0.2,0.6-0.7,1.1-0.9,1.7
				c-0.1,0.2,0.2,0.3,0.3,0.2c0.4-0.5,0.9-0.9,1.3-1.3c0.5,0.2,1,0.5,1.5,0.7C125.9,263.1,126.1,262.9,125.9,262.7z"/>
			<path class="st16" d="M226.5,386.3c-0.4-0.3-0.8-0.7-1.3-1c0.2-0.6,0.6-1.1,0.7-1.8c0-0.2-0.2-0.3-0.3-0.1
				c-0.4,0.5-0.7,0.9-1.1,1.4c-0.5-0.2-1-0.5-1.6-0.7c-0.2,0-0.3,0.2-0.2,0.3c0.4,0.3,0.9,0.7,1.3,1.1c-0.2,0.6-0.7,1.1-0.9,1.7
				c-0.1,0.2,0.2,0.3,0.3,0.2c0.4-0.5,0.9-0.9,1.3-1.3c0.5,0.2,1,0.5,1.5,0.7C226.5,386.7,226.6,386.4,226.5,386.3z"/>
			<path class="st16" d="M63.4,377.9c-0.5,0-1.1,0-1.6,0c-0.3-0.6-0.3-1.2-0.6-1.8c-0.1-0.2-0.4-0.1-0.4,0.1c0,0.6,0.1,1.2,0.1,1.8
				c-0.5,0.2-1.1,0.2-1.6,0.5c-0.2,0.1-0.1,0.4,0.1,0.4c0.6,0,1.1,0,1.7,0c0.2,0.6,0.2,1.2,0.4,1.8c0.1,0.2,0.4,0.1,0.4-0.1
				c0-0.6,0.1-1.2,0.1-1.9c0.5-0.2,1.1-0.2,1.6-0.5C63.6,378.2,63.6,377.9,63.4,377.9z"/>
			<path class="st48" d="M90.2,272.9c-0.2,0.1-0.3,0.2-0.4,0.4c-0.7,0.8-0.5,2.2,0.5,2.7c1.2,0.7,2.7-0.2,2.8-1.5
				C93.1,273.1,91.4,272.1,90.2,272.9z"/>
		</g>
		<g class="st9">
			<g>
				<g>
					<path class="st49" d="M102.5,375.1c-0.2,0.5-5.1,18-5.1,18l2.9,0.7l5.6-17.5L102.5,375.1z"/>
					<path class="st49" d="M101.7,394.7c-0.5,1.6-2.2,2.4-3.7,2s-2.4-2.2-2-3.7c0.5-1.6,2.2-2.4,3.7-2
						C101.3,391.5,102.2,393.2,101.7,394.7z"/>
				</g>
				<g>
					<path class="st49" d="M183.2,376.8c0.2,0.5,7.2,17.3,7.2,17.3l2.7-1.2l-6.4-17.2L183.2,376.8z"/>
					
						<ellipse transform="matrix(0.9199 -0.3922 0.3922 0.9199 -139.0987 106.842)" class="st49" cx="191.9" cy="393.9" rx="3" ry="3"/>
				</g>
			</g>
			<path class="st29" d="M227.5,352.5c0,18.5-37.3,28.5-83.2,28.5c-46,0-83.2-10-83.2-28.5c0-18.5,37.3-29.5,83.2-29.5
				C190.3,323,227.5,334,227.5,352.5z"/>
			<g>
				<path class="st30" d="M144.7,350.1c-14.2,0-30.6-2.8-48.2-10.9l-0.3-0.1l0-0.3c0-0.1-1.1-13.9,4.4-28.9
					c4-11,12.2-24.6,29.2-32.9c13.8-6.7,30.3-5.4,42.2,4.2c0.4,0.3,0.8,0.7,1.3,1.1c12.7,11.1,19.8,29.7,21,55.2l0,0.3L194,338
					C193.7,338.2,174.1,350.1,144.7,350.1z"/>
				<path class="st50" d="M179.5,329.1c-2.9-9.4-8.2-21.7-17.4-28.5c0.8-2.5,2.4-5.1,3.6-6.7c0.8,0.7,1.8,1.2,2.9,1.2
					c2.4,0,4.4-1.9,4.4-4.3c0-2.4-1.9-4.4-4.3-4.4c-2.4,0-4.4,1.9-4.4,4.3c0,0.2,0,0.3,0,0.5c-1.9,1.7-3.7,5.2-4.8,7.8
					c-4.6-2.7-10-4.1-16.5-3.2c-4.3,0.6-8,1.7-11.4,3.1c-1-2.6-2.8-6.4-4.7-8.2c0-0.2,0.1-0.3,0.1-0.5c0-2.4-1.9-4.4-4.3-4.4
					c-2.4,0-4.4,1.9-4.4,4.3c0,2.4,1.9,4.4,4.3,4.4c1.1,0,2.2-0.4,3-1.1c1.1,1.7,2.7,4.3,3.4,6.8c-17.3,9.3-21.6,30-22.5,43.2
					c13.8,5,26.6,6.8,38,6.8c16.5,0,29.9-3.7,38.5-7.1C182.3,339,181.1,334.2,179.5,329.1z"/>
				<g>
					<path class="st24" d="M133.2,324.1c0,2-1.9,3.7-4.2,3.7c-2.3,0-4.2-1.7-4.2-3.7c0-2,1.9-3.7,4.2-3.7
						C131.3,320.4,133.2,322.1,133.2,324.1z"/>
					<path class="st24" d="M165.9,324.1c0,2-1.9,3.7-4.2,3.7c-2.3,0-4.2-1.7-4.2-3.7c0-2,1.9-3.7,4.2-3.7
						C164,320.4,165.9,322.1,165.9,324.1z"/>
					<path class="st23" d="M139.9,330.8c0.9,1.5,2.3,2.9,4,3.5c3.2,1.3,5.9-0.9,7.8-3.4c0.7-0.9-0.9-1.8-1.6-0.9
						c-1.6,2.2-3.9,3.8-6.5,2.1c-0.8-0.6-1.6-1.4-2.1-2.2C140.9,328.9,139.3,329.8,139.9,330.8L139.9,330.8z"/>
					<path class="st20" d="M155.9,316.1c0,3.9-4.8,7-10.7,7c-5.9,0-10.7-3.1-10.7-7c0-3.9,4.8-7,10.7-7
						C151.1,309.1,155.9,312.3,155.9,316.1z"/>
					<path class="st23" d="M148.6,316.3c0,1.8-1.5,3.3-3.3,3.3c-1.8,0-3.3-1.5-3.3-3.3c0-1.8,1.5-3.3,3.3-3.3
						C147.2,313.1,148.6,314.5,148.6,316.3z"/>
				</g>
			</g>
			<g>
				<ellipse class="st20" cx="78.8" cy="353.5" rx="8" ry="4.2"/>
				<ellipse class="st20" cx="104.5" cy="364" rx="7.4" ry="3.9"/>
				<path class="st20" d="M152.5,367.5c0,1.9-3.4,3.4-7.6,3.4c-4.2,0-7.6-1.5-7.6-3.4c0-1.9,3.4-3.4,7.6-3.4
					C149.1,364.1,152.5,365.7,152.5,367.5z"/>
				<ellipse class="st20" cx="183.7" cy="364.4" rx="7.1" ry="3.1"/>
				<path class="st20" d="M215.3,353.5c0,2-3.5,3.6-7.9,3.6c-4.4,0-7.9-1.6-7.9-3.6c0-2,3.5-3.6,7.9-3.6
					C211.8,349.9,215.3,351.5,215.3,353.5z"/>
			</g>
		</g>
	</g>
</g>
<g id="Designed_by_Freepik" class="st0">
	<g class="st9">
		<g id="XMLID_319_">
			<g id="XMLID_338_">
				<path id="XMLID_346_" class="st51" d="M260.1,465.5c-0.4,0.4-0.8,0.9-1.1,1.5l-0.5-0.2c-0.1-0.3-0.3-0.5-0.7-0.5
					c-0.3,0-0.6,0.3-0.5,0.7c0,0.3,0.3,0.6,0.7,0.5c0.1,0,0.1,0,0.2-0.1l0.5,0.2c-0.3,0.6-0.4,1.1-0.5,1.7l0.7,0.1
					c0.2-1.3,0.8-2.5,1.8-3.5L260.1,465.5z"/>
				<path id="XMLID_345_" class="st51" d="M265.6,463.2c-0.2,0-0.3,0-0.5,0l-0.1-0.6c0.2-0.1,0.3-0.4,0.3-0.6c0-0.4-0.4-0.7-0.8-0.6
					c-0.4,0-0.7,0.4-0.6,0.8c0,0.3,0.2,0.5,0.4,0.6l0.1,0.6c-0.7,0.1-1.4,0.3-2.1,0.6l0.3,0.7c0.9-0.4,1.9-0.7,3-0.7
					c0.5,0,1,0.1,1.5,0.2l0.2-0.7C266.7,463.2,266.1,463.2,265.6,463.2z"/>
				<path id="XMLID_344_" class="st51" d="M272.2,465.7c0.3,0,0.6-0.3,0.5-0.7c0-0.3-0.3-0.6-0.7-0.5c-0.3,0-0.5,0.3-0.5,0.6
					l-0.4,0.4c-0.4-0.4-0.9-0.8-1.4-1.1l-0.4,0.6c1.1,0.7,2,1.7,2.6,2.9l0.7-0.3c-0.3-0.6-0.6-1.1-0.9-1.5l0.4-0.4
					C272.1,465.7,272.1,465.7,272.2,465.7z"/>
				<path id="XMLID_343_" class="st51" d="M265,473.4c-0.4,0-0.8,0-1.2,0c-0.9,0-1.7-0.1-2.5-0.2c-0.4-0.1-0.8-0.2-1.3-0.3
					c1,1.9,3.1,3.1,5.4,3.1c2.9,0,5.3-1.9,5.9-4.5c-0.7,0.4-1.5,0.8-2.5,1.1C267.8,473,266.5,473.3,265,473.4z"/>
				<path id="XMLID_339_" class="st51" d="M265.6,464.7c-3.4,0-6.1,2.7-6.1,5.9c0,0.4,0,0.8,0.1,1.3c0.7,0.5,2.7,0.9,5.3,0.7
					c2.9-0.2,5.3-1,6.7-2.2c0-0.2,0-0.4,0-0.6C271.2,466.9,268.7,464.7,265.6,464.7z M263.4,471.2c-1,0-1.8-0.8-1.8-1.8
					c0-1,0.8-1.8,1.8-1.8c1,0,1.8,0.8,1.8,1.8C265.3,470.4,264.5,471.2,263.4,471.2z M268.2,470.3c-0.8,0-1.4-0.6-1.4-1.4
					s0.6-1.4,1.4-1.4c0.8,0,1.4,0.6,1.4,1.4S268.9,470.3,268.2,470.3z"/>
			</g>
			<path id="XMLID_336_" class="st51" d="M281.6,466.5c-0.3-0.1-0.8-0.3-1.4-0.2c-0.6,0.1-0.8,0.3-0.8,1v0.9h2.2v1.7h-2.2v5.5h-1.9
				v-5.5h-1.3v-1.7h1.3v-0.9c0-1.7,0.9-2.8,2.6-2.8c0.6,0,1.2,0.1,1.6,0.3L281.6,466.5z"/>
			<path id="XMLID_334_" class="st51" d="M286.3,469.9c-0.2,0-0.4,0-0.5,0c-0.9,0-1.5,0.5-1.5,1.6v3.9h-1.9v-7.2h1.9v0.8
				c0.5-0.7,1.1-1,2-1c0.4,0,0.8,0.1,1.1,0.3L286.3,469.9z"/>
			<path id="XMLID_331_" class="st51" d="M294,471.8c0,0.2,0,0.5,0,0.7h-5.1c0.2,1,0.9,1.5,1.8,1.5c0.6,0,1.3-0.3,1.8-0.7l1.1,1.2
				c-0.8,0.7-1.9,1.1-3.1,1.1c-2.2,0-3.7-1.5-3.7-3.8c0-2.3,1.5-3.8,3.6-3.8C292.5,468,294,469.5,294,471.8z M288.9,471.1h3.2
				c-0.2-0.9-0.7-1.4-1.6-1.4C289.6,469.7,289,470.2,288.9,471.1z"/>
			<path id="XMLID_328_" class="st51" d="M301.6,471.8c0,0.2,0,0.5,0,0.7h-5.1c0.2,1,0.9,1.5,1.8,1.5c0.6,0,1.3-0.3,1.8-0.7l1.1,1.2
				c-0.8,0.7-1.9,1.1-3.1,1.1c-2.2,0-3.7-1.5-3.7-3.8c0-2.3,1.5-3.8,3.6-3.8C300.2,468,301.6,469.5,301.6,471.8z M296.5,471.1h3.2
				c-0.2-0.9-0.7-1.4-1.6-1.4C297.2,469.7,296.7,470.2,296.5,471.1z"/>
			<path id="XMLID_325_" class="st51" d="M310,471.8c0,2.2-1.5,3.8-3.5,3.8c-1,0-1.6-0.4-2.1-0.9v3.7h-1.9v-10.1h1.9v0.8
				c0.5-0.6,1.2-1,2.1-1C308.5,468,310,469.6,310,471.8z M304.3,471.8c0,1.1,0.7,2,1.8,2c1.1,0,1.9-0.9,1.9-2c0-1.1-0.7-2-1.9-2
				C305,469.8,304.3,470.6,304.3,471.8z"/>
			<path id="XMLID_322_" class="st51" d="M313.1,465.8c0,0.7-0.5,1.2-1.2,1.2c-0.7,0-1.2-0.5-1.2-1.2c0-0.7,0.5-1.2,1.2-1.2
				C312.5,464.6,313.1,465.1,313.1,465.8z M312.8,475.4h-1.9v-7.2h1.9V475.4z"/>
			<path id="XMLID_320_" class="st51" d="M316,470.7l2.7-2.6h2.4l-3.5,3.4l3.5,3.8h-2.4l-2.7-2.9v2.9h-1.9v-10.7h1.9V470.7z"/>
		</g>
		<g>
			<path class="st51" d="M184.4,475.3v-1.1c-0.5,0.7-1.4,1.2-2.4,1.2c-1.8,0-3.1-1.4-3.1-3.7c0-2.3,1.3-3.7,3.1-3.7
				c1,0,1.8,0.5,2.4,1.2v-3.8h1.1v9.8H184.4z M184.4,473.4v-3.2c-0.4-0.6-1.2-1.1-2.1-1.1c-1.4,0-2.3,1.2-2.3,2.7
				c0,1.6,0.8,2.7,2.3,2.7C183.2,474.5,184,474,184.4,473.4z"/>
			<path class="st51" d="M186.9,471.7c0-2.1,1.5-3.7,3.5-3.7c2.1,0,3.4,1.7,3.4,3.8v0.3h-5.7c0.1,1.3,1,2.4,2.5,2.4
				c0.8,0,1.6-0.3,2.2-0.9l0.5,0.7c-0.7,0.7-1.7,1.1-2.8,1.1C188.4,475.5,186.9,474,186.9,471.7z M190.4,468.9
				c-1.5,0-2.3,1.3-2.3,2.4h4.6C192.7,470.3,192,468.9,190.4,468.9z"/>
			<path class="st51" d="M194.6,474.4l0.6-0.8c0.5,0.5,1.4,1,2.3,1c1.1,0,1.7-0.5,1.7-1.2c0-1.7-4.4-0.7-4.4-3.3c0-1.1,1-2,2.6-2
				c1.2,0,2.1,0.5,2.6,1l-0.5,0.8c-0.4-0.5-1.2-0.9-2.1-0.9c-1,0-1.6,0.5-1.6,1.1c0,1.6,4.4,0.5,4.4,3.3c0,1.2-1,2.1-2.8,2.1
				C196.3,475.5,195.3,475.1,194.6,474.4z"/>
			<path class="st51" d="M201.5,466.5c0-0.4,0.3-0.7,0.7-0.7c0.4,0,0.7,0.3,0.7,0.7c0,0.4-0.3,0.7-0.7,0.7
				C201.8,467.2,201.5,466.9,201.5,466.5z M201.7,475.3v-7.1h1.1v7.1H201.7z"/>
			<path class="st51" d="M204.6,477.1l0.6-0.8c0.6,0.7,1.3,1,2.3,1c1.2,0,2.3-0.6,2.3-2.1v-1c-0.5,0.7-1.4,1.3-2.4,1.3
				c-1.8,0-3.1-1.4-3.1-3.7c0-2.3,1.3-3.7,3.1-3.7c1,0,1.8,0.5,2.4,1.2v-1.1h1.1v6.9c0,2.3-1.6,3.1-3.4,3.1
				C206.2,478.2,205.4,477.9,204.6,477.1z M209.7,473.3v-3.1c-0.4-0.6-1.2-1.1-2.1-1.1c-1.4,0-2.3,1.1-2.3,2.7
				c0,1.6,0.8,2.7,2.3,2.7C208.5,474.4,209.3,473.9,209.7,473.3z"/>
			<path class="st51" d="M217.4,475.3v-4.6c0-1.2-0.6-1.6-1.6-1.6c-0.9,0-1.7,0.5-2.1,1.1v5.2h-1.1v-7.1h1.1v1
				c0.5-0.6,1.5-1.2,2.5-1.2c1.5,0,2.3,0.7,2.3,2.3v5H217.4z"/>
			<path class="st51" d="M219.9,471.7c0-2.1,1.5-3.7,3.5-3.7c2.1,0,3.4,1.7,3.4,3.8v0.3h-5.7c0.1,1.3,1,2.4,2.5,2.4
				c0.8,0,1.6-0.3,2.2-0.9l0.5,0.7c-0.7,0.7-1.7,1.1-2.8,1.1C221.4,475.5,219.9,474,219.9,471.7z M223.4,468.9
				c-1.5,0-2.3,1.3-2.3,2.4h4.6C225.7,470.3,225,468.9,223.4,468.9z"/>
			<path class="st51" d="M233.4,475.3v-1.1c-0.5,0.7-1.4,1.2-2.4,1.2c-1.8,0-3.1-1.4-3.1-3.7c0-2.3,1.3-3.7,3.1-3.7
				c1,0,1.8,0.5,2.4,1.2v-3.8h1.1v9.8H233.4z M233.4,473.4v-3.2c-0.4-0.6-1.2-1.1-2.1-1.1c-1.4,0-2.3,1.2-2.3,2.7
				c0,1.6,0.8,2.7,2.3,2.7C232.1,474.5,233,474,233.4,473.4z"/>
			<path class="st51" d="M239.7,475.3v-9.8h1.1v3.8c0.6-0.8,1.4-1.2,2.4-1.2c1.8,0,3.1,1.5,3.1,3.7c0,2.3-1.3,3.7-3.1,3.7
				c-1,0-1.9-0.5-2.4-1.2v1.1H239.7z M242.9,474.5c1.4,0,2.3-1.2,2.3-2.7c0-1.6-0.8-2.7-2.3-2.7c-0.9,0-1.7,0.5-2.1,1.1v3.2
				C241.2,474,242,474.5,242.9,474.5z"/>
			<path class="st51" d="M247.5,477.1c0.2,0.1,0.4,0.1,0.6,0.1c0.5,0,0.8-0.2,1.1-0.7l0.5-1.1l-3-7.1h1.2l2.4,5.8l2.3-5.8h1.2
				l-3.5,8.5c-0.4,1-1.1,1.4-2.1,1.4c-0.2,0-0.6,0-0.8-0.1L247.5,477.1z"/>
		</g>
	</g>
</g>
</svg>
