<?xml version="1.0" encoding="utf-8"?>
<!-- Generator: Adobe Illustrator 23.0.3, SVG Export Plug-In . SVG Version: 6.00 Build 0)  -->
<svg version="1.1" xmlns="http://www.w3.org/2000/svg" xmlns:xlink="http://www.w3.org/1999/xlink" x="0px" y="0px"
	 viewBox="0 0 10000 1080" style="enable-background:new 0 0 10000 1080;" xml:space="preserve">
<style type="text/css">
	.st0{display:none;}
	.st1{display:inline;fill:#191D49;stroke:#000000;stroke-miterlimit:10;}
	.st2{fill:#FFFFFF;}
</style>
<g id="pozadí" class="st0">
	<rect class="st1" width="10000" height="1080"/>
</g>
<g id="Si_moje_hvězda_3pz">
	<g>
		<g>
			<path class="st2" d="M432.1,329.6c5.8,0,5.8-9,0-9C426.3,320.6,426.3,329.6,432.1,329.6L432.1,329.6z"/>
		</g>
	</g>
	<g>
		<g>
			<path class="st2" d="M486.7,811.6c5.8,0,5.8-9,0-9C480.9,802.6,480.9,811.6,486.7,811.6L486.7,811.6z"/>
		</g>
	</g>
	<g>
		<g>
			<path class="st2" d="M1459.8,611.5c5.8,0,5.8-9,0-9C1454,602.5,1454,611.5,1459.8,611.5L1459.8,611.5z"/>
		</g>
	</g>
	<g>
		<g>
			<path class="st2" d="M750.4,338.7c5.8,0,5.8-9,0-9C744.6,329.7,744.6,338.7,750.4,338.7L750.4,338.7z"/>
		</g>
	</g>
	<g>
		<g>
			<path class="st2" d="M2787.6,356.9c5.8,0,5.8-9,0-9C2781.8,347.9,2781.8,356.9,2787.6,356.9L2787.6,356.9z"/>
		</g>
	</g>
	<g>
		<g>
			<path class="st2" d="M186.5,602.4c5.8,0,5.8-9,0-9C180.7,593.4,180.7,602.4,186.5,602.4L186.5,602.4z"/>
		</g>
	</g>
	<g>
		<g>
			<path class="st2" d="M604.9,393.2c5.8,0,5.8-9,0-9C599.1,384.2,599.1,393.2,604.9,393.2L604.9,393.2z"/>
		</g>
	</g>
	<g>
		<g>
			<path class="st2" d="M1878.1,702.5c5.8,0,5.8-9,0-9C1872.4,693.5,1872.3,702.5,1878.1,702.5L1878.1,702.5z"/>
		</g>
	</g>
	<g>
		<g>
			<path class="st2" d="M3860.8,857.1c5.8,0,5.8-9,0-9C3855,848.1,3855,857.1,3860.8,857.1L3860.8,857.1z"/>
		</g>
	</g>
	<g>
		<g>
			<path class="st2" d="M2378.4,557c5.8,0,5.8-9,0-9C2372.6,548,2372.6,557,2378.4,557L2378.4,557z"/>
		</g>
	</g>
	<g>
		<g>
			<path class="st2" d="M2878.6,747.9c5.8,0,5.8-9,0-9C2872.8,738.9,2872.8,747.9,2878.6,747.9L2878.6,747.9z"/>
		</g>
	</g>
	<g>
		<g>
			<path class="st2" d="M2542.1,1048.1c5.8,0,5.8-9,0-9C2536.3,1039.1,2536.3,1048.1,2542.1,1048.1L2542.1,1048.1z"/>
		</g>
	</g>
	<g>
		<g>
			<path class="st2" d="M1423.4,493.3c5.8,0,5.8-9,0-9C1417.6,484.3,1417.6,493.3,1423.4,493.3L1423.4,493.3z"/>
		</g>
	</g>
	<g>
		<g>
			<path class="st2" d="M2260.1,366c5.8,0,5.8-9,0-9C2254.3,357,2254.3,366,2260.1,366L2260.1,366z"/>
		</g>
	</g>
	<g>
		<g>
			<path class="st2" d="M1669,320.5c5.8,0,5.8-9,0-9C1663.2,311.5,1663.2,320.5,1669,320.5L1669,320.5z"/>
		</g>
	</g>
	<g>
		<g>
			<path class="st2" d="M1623.5,502.4c5.8,0,5.8-9,0-9C1617.7,493.4,1617.7,502.4,1623.5,502.4L1623.5,502.4z"/>
		</g>
	</g>
	<g>
		<g>
			<path class="st2" d="M1587.1,993.5c5.8,0,5.8-9,0-9C1581.3,984.5,1581.3,993.5,1587.1,993.5L1587.1,993.5z"/>
		</g>
	</g>
	<g>
		<g>
			<path class="st2" d="M768.6,593.3c5.8,0,5.8-9,0-9C762.8,584.3,762.8,593.3,768.6,593.3L768.6,593.3z"/>
		</g>
	</g>
	<g>
		<g>
			<path class="st2" d="M1159.7,202.3c5.8,0,5.8-9,0-9C1153.9,193.3,1153.9,202.3,1159.7,202.3L1159.7,202.3z"/>
		</g>
	</g>
	<g>
		<g>
			<path class="st2" d="M1314.3,702.5c5.8,0,5.8-9,0-9C1308.5,693.5,1308.5,702.5,1314.3,702.5L1314.3,702.5z"/>
		</g>
	</g>
	<g>
		<g>
			<path class="st2" d="M895.9,911.6c5.8,0,5.8-9,0-9C890.1,902.6,890.1,911.6,895.9,911.6L895.9,911.6z"/>
		</g>
	</g>
	<g>
		<g>
			<path class="st2" d="M459.4,1002.6c5.8,0,5.8-9,0-9C453.6,993.6,453.6,1002.6,459.4,1002.6L459.4,1002.6z"/>
		</g>
	</g>
	<g>
		<g>
			<path class="st2" d="M4261,356.9c5.8,0,5.8-9,0-9C4255.2,347.9,4255.2,356.9,4261,356.9L4261,356.9z"/>
		</g>
	</g>
	<g>
		<g>
			<path class="st2" d="M4070,757c5.8,0,5.8-9,0-9C4064.2,748,4064.2,757,4070,757L4070,757z"/>
		</g>
	</g>
	<g>
		<g>
			<path class="st2" d="M3296.9,475.1c5.8,0,5.8-9,0-9C3291.1,466.1,3291.1,475.1,3296.9,475.1L3296.9,475.1z"/>
		</g>
	</g>
	<g>
		<g>
			<path class="st2" d="M3306,866.2c5.8,0,5.8-9,0-9C3300.2,857.2,3300.2,866.2,3306,866.2L3306,866.2z"/>
		</g>
	</g>
	<g>
		<g>
			<path class="st2" d="M3542.5,311.4c5.8,0,5.8-9,0-9C3536.7,302.4,3536.7,311.4,3542.5,311.4L3542.5,311.4z"/>
		</g>
	</g>
	<g>
		<g>
			<path class="st2" d="M2787.6,193.2c5.8,0,5.8-9,0-9C2781.8,184.2,2781.8,193.2,2787.6,193.2L2787.6,193.2z"/>
		</g>
	</g>
	<g>
		<g>
			<path class="st2" d="M5625.2,820.7c5.8,0,5.8-9,0-9C5619.4,811.7,5619.4,820.7,5625.2,820.7L5625.2,820.7z"/>
		</g>
	</g>
	<g>
		<g>
			<path class="st2" d="M6943.9,302.3c5.8,0,5.8-9,0-9C6938.1,293.3,6938.1,302.3,6943.9,302.3L6943.9,302.3z"/>
		</g>
	</g>
	<g>
		<g>
			<path class="st2" d="M3751.7,657c5.8,0,5.8-9,0-9C3745.9,648,3745.9,657,3751.7,657L3751.7,657z"/>
		</g>
	</g>
	<g>
		<g>
			<path class="st2" d="M1096,466c5.8,0,5.8-9,0-9C1090.2,457,1090.2,466,1096,466L1096,466z"/>
		</g>
	</g>
	<g>
		<g>
			<path class="st2" d="M5725.2,438.7c5.8,0,5.8-9,0-9C5719.4,429.7,5719.4,438.7,5725.2,438.7L5725.2,438.7z"/>
		</g>
	</g>
	<g>
		<g>
			<path class="st2" d="M8308.1,666.1c5.8,0,5.8-9,0-9C8302.3,657.1,8302.3,666.1,8308.1,666.1L8308.1,666.1z"/>
		</g>
	</g>
	<g>
		<g>
			<path class="st2" d="M9517.7,875.3c5.8,0,5.8-9,0-9C9511.9,866.3,9511.9,875.3,9517.7,875.3L9517.7,875.3z"/>
		</g>
	</g>
	<g>
		<g>
			<path class="st2" d="M9599.6,593.3c5.8,0,5.8-9,0-9C9593.8,584.3,9593.8,593.3,9599.6,593.3L9599.6,593.3z"/>
		</g>
	</g>
	<g>
		<g>
			<path class="st2" d="M6889.3,647.9c5.8,0,5.8-9,0-9C6883.6,638.9,6883.5,647.9,6889.3,647.9L6889.3,647.9z"/>
		</g>
	</g>
	<g>
		<g>
			<path class="st2" d="M7107.6,384.2c5.8,0,5.8-9,0-9C7101.8,375.2,7101.8,384.2,7107.6,384.2L7107.6,384.2z"/>
		</g>
	</g>
	<g>
		<g>
			<path class="st2" d="M8790.1,493.3c5.8,0,5.8-9,0-9C8784.4,484.3,8784.3,493.3,8790.1,493.3L8790.1,493.3z"/>
		</g>
	</g>
	<g>
		<g>
			<path class="st2" d="M7935.2,966.2c5.8,0,5.8-9,0-9C7929.5,957.2,7929.4,966.2,7935.2,966.2L7935.2,966.2z"/>
		</g>
	</g>
	<g>
		<g>
			<path class="st2" d="M6825.7,802.5c5.8,0,5.8-9,0-9C6819.9,793.5,6819.9,802.5,6825.7,802.5L6825.7,802.5z"/>
		</g>
	</g>
	<g>
		<g>
			<path class="st2" d="M6198.1,875.3c5.8,0,5.8-9,0-9C6192.4,866.3,6192.3,875.3,6198.1,875.3L6198.1,875.3z"/>
		</g>
	</g>
	<g>
		<g>
			<path class="st2" d="M6125.4,384.2c5.8,0,5.8-9,0-9C6119.6,375.2,6119.6,384.2,6125.4,384.2L6125.4,384.2z"/>
		</g>
	</g>
	<g>
		<g>
			<path class="st2" d="M6825.7,347.8c5.8,0,5.8-9,0-9C6819.9,338.8,6819.9,347.8,6825.7,347.8L6825.7,347.8z"/>
		</g>
	</g>
	<g>
		<g>
			<path class="st2" d="M6543.7,638.8c5.8,0,5.8-9,0-9C6538,629.8,6537.9,638.8,6543.7,638.8L6543.7,638.8z"/>
		</g>
	</g>
	<g>
		<g>
			<path class="st2" d="M4970.4,466c5.8,0,5.8-9,0-9C4964.6,457,4964.6,466,4970.4,466L4970.4,466z"/>
		</g>
	</g>
	<g>
		<g>
			<path class="st2" d="M4997.6,784.3c5.8,0,5.8-9,0-9C4991.9,775.3,4991.8,784.3,4997.6,784.3L4997.6,784.3z"/>
		</g>
	</g>
	<g>
		<g>
			<path class="st2" d="M5734.3,920.7c5.8,0,5.8-9,0-9C5728.5,911.7,5728.5,920.7,5734.3,920.7L5734.3,920.7z"/>
		</g>
	</g>
	<g>
		<g>
			<path class="st2" d="M5334.1,311.4c5.8,0,5.8-9,0-9C5328.4,302.4,5328.3,311.4,5334.1,311.4L5334.1,311.4z"/>
		</g>
	</g>
	<g>
		<g>
			<path class="st2" d="M4479.2,265.9c5.8,0,5.8-9,0-9C4473.5,256.9,4473.4,265.9,4479.2,265.9L4479.2,265.9z"/>
		</g>
	</g>
	<g>
		<g>
			<path class="st2" d="M4470.1,575.1c5.8,0,5.8-9,0-9C4464.4,566.1,4464.3,575.1,4470.1,575.1L4470.1,575.1z"/>
		</g>
	</g>
	<g>
		<g>
			<path class="st2" d="M4470.1,829.8c5.8,0,5.8-9,0-9C4464.4,820.8,4464.3,829.8,4470.1,829.8L4470.1,829.8z"/>
		</g>
	</g>
	<g>
		<g>
			<path class="st2" d="M3151.4,411.4c5.8,0,5.8-9,0-9C3145.6,402.4,3145.6,411.4,3151.4,411.4L3151.4,411.4z"/>
		</g>
	</g>
	<g>
		<g>
			<path class="st2" d="M8271.7,456.9c5.8,0,5.8-9,0-9C8266,447.9,8265.9,456.9,8271.7,456.9L8271.7,456.9z"/>
		</g>
	</g>
	<g>
		<g>
			<path class="st2" d="M7707.9,375.1c5.8,0,5.8-9,0-9C7702.1,366.1,7702.1,375.1,7707.9,375.1L7707.9,375.1z"/>
		</g>
	</g>
	<g>
		<g>
			<path class="st2" d="M5807.1,438.7c5.8,0,5.8-9,0-9C5801.3,429.7,5801.3,438.7,5807.1,438.7L5807.1,438.7z"/>
		</g>
	</g>
	<g>
		<g>
			<path class="st2" d="M4697.5,702.5c5.8,0,5.8-9,0-9C4691.7,693.5,4691.7,702.5,4697.5,702.5L4697.5,702.5z"/>
		</g>
	</g>
	<g>
		<g>
			<path class="st2" d="M3169.6,338.7c5.8,0,5.8-9,0-9C3163.8,329.7,3163.8,338.7,3169.6,338.7L3169.6,338.7z"/>
		</g>
	</g>
	<g>
		<g>
			<path class="st2" d="M4188.2,256.8c5.8,0,5.8-9,0-9C4182.4,247.8,4182.4,256.8,4188.2,256.8L4188.2,256.8z"/>
		</g>
	</g>
	<g>
		<g>
			<path class="st2" d="M4861.2,65.8c5.8,0,5.8-9,0-9C4855.4,56.8,4855.4,65.8,4861.2,65.8L4861.2,65.8z"/>
		</g>
	</g>
	<g>
		<g>
			<path class="st2" d="M7553.3,202.3c5.8,0,5.8-9,0-9C7547.5,193.3,7547.5,202.3,7553.3,202.3L7553.3,202.3z"/>
		</g>
	</g>
	<g>
		<g>
			<path class="st2" d="M7253.1,529.7c5.8,0,5.8-9,0-9C7247.3,520.7,7247.3,529.7,7253.1,529.7L7253.1,529.7z"/>
		</g>
	</g>
	<g>
		<g>
			<path class="st2" d="M7762.4,684.3c5.8,0,5.8-9,0-9C7756.7,675.3,7756.6,684.3,7762.4,684.3L7762.4,684.3z"/>
		</g>
	</g>
	<g>
		<g>
			<path class="st2" d="M8308.1,256.8c5.8,0,5.8-9,0-9C8302.3,247.8,8302.3,256.8,8308.1,256.8L8308.1,256.8z"/>
		</g>
	</g>
	<g>
		<g>
			<path class="st2" d="M3569.8,793.4c5.8,0,5.8-9,0-9C3564,784.4,3564,793.4,3569.8,793.4L3569.8,793.4z"/>
		</g>
	</g>
	<g>
		<g>
			<path class="st2" d="M3851.7,384.2c5.8,0,5.8-9,0-9C3845.9,375.2,3845.9,384.2,3851.7,384.2L3851.7,384.2z"/>
		</g>
	</g>
	<g>
		<g>
			<path class="st2" d="M2423.8,775.2c5.8,0,5.8-9,0-9C2418,766.2,2418,775.2,2423.8,775.2L2423.8,775.2z"/>
		</g>
	</g>
	<g>
		<g>
			<path class="st2" d="M2260.1,111.3c5.8,0,5.8-9,0-9C2254.3,102.3,2254.3,111.3,2260.1,111.3L2260.1,111.3z"/>
		</g>
	</g>
	<g>
		<g>
			<path class="st2" d="M5479.7,393.2c5.8,0,5.8-9,0-9C5473.9,384.2,5473.9,393.2,5479.7,393.2L5479.7,393.2z"/>
		</g>
	</g>
	<g>
		<g>
			<path class="st2" d="M7607.8,529.7c5.8,0,5.8-9,0-9C7602,520.7,7602,529.7,7607.8,529.7L7607.8,529.7z"/>
		</g>
	</g>
	<g>
		<g>
			<path class="st2" d="M2987.7,238.6c5.8,0,5.8-9,0-9C2981.9,229.6,2981.9,238.6,2987.7,238.6L2987.7,238.6z"/>
		</g>
	</g>
	<g>
		<g>
			<path class="st2" d="M2023.7,884.4c5.8,0,5.8-9,0-9C2017.9,875.4,2017.9,884.4,2023.7,884.4L2023.7,884.4z"/>
		</g>
	</g>
	<g>
		<g>
			<path class="st2" d="M1896.3,411.4c5.8,0,5.8-9,0-9C1890.5,402.4,1890.5,411.4,1896.3,411.4L1896.3,411.4z"/>
		</g>
	</g>
	<g>
		<g>
			<path class="st2" d="M1950.9,74.9c5.8,0,5.8-9,0-9C1945.1,65.9,1945.1,74.9,1950.9,74.9L1950.9,74.9z"/>
		</g>
	</g>
	<g>
		<g>
			<path class="st2" d="M341.1,120.4c5.8,0,5.8-9,0-9C335.3,111.4,335.3,120.4,341.1,120.4L341.1,120.4z"/>
		</g>
	</g>
	<g>
		<g>
			<path class="st2" d="M341.1,775.2c5.8,0,5.8-9,0-9C335.3,766.2,335.3,775.2,341.1,775.2L341.1,775.2z"/>
		</g>
	</g>
	<g>
		<g>
			<path class="st2" d="M159.2,993.5c5.8,0,5.8-9,0-9C153.5,984.5,153.4,993.5,159.2,993.5L159.2,993.5z"/>
		</g>
	</g>
	<g>
		<g>
			<path class="st2" d="M4279.2,911.6c5.8,0,5.8-9,0-9C4273.4,902.6,4273.4,911.6,4279.2,911.6L4279.2,911.6z"/>
		</g>
	</g>
	<g>
		<g>
			<path class="st2" d="M2978.6,957.1c5.8,0,5.8-9,0-9C2972.8,948.1,2972.8,957.1,2978.6,957.1L2978.6,957.1z"/>
		</g>
	</g>
	<g>
		<g>
			<path class="st2" d="M3196.9,638.8c5.8,0,5.8-9,0-9C3191.1,629.8,3191.1,638.8,3196.9,638.8L3196.9,638.8z"/>
		</g>
	</g>
	<g>
		<g>
			<path class="st2" d="M7507.8,820.7c5.8,0,5.8-9,0-9C7502,811.7,7502,820.7,7507.8,820.7L7507.8,820.7z"/>
		</g>
	</g>
	<g>
		<g>
			<path class="st2" d="M7962.5,657c5.8,0,5.8-9,0-9C7956.7,648,7956.7,657,7962.5,657L7962.5,657z"/>
		</g>
	</g>
	<g>
		<g>
			<path class="st2" d="M8444.5,938.9c5.8,0,5.8-9,0-9C8438.8,929.9,8438.7,938.9,8444.5,938.9L8444.5,938.9z"/>
		</g>
	</g>
	<g>
		<g>
			<path class="st2" d="M9508.6,184.1c5.8,0,5.8-9,0-9C9502.8,175.1,9502.8,184.1,9508.6,184.1L9508.6,184.1z"/>
		</g>
	</g>
	<g>
		<g>
			<path class="st2" d="M9235.8,575.1c5.8,0,5.8-9,0-9C9230,566.1,9230,575.1,9235.8,575.1L9235.8,575.1z"/>
		</g>
	</g>
	<g>
		<g>
			<path class="st2" d="M8872,1002.6c5.8,0,5.8-9,0-9C8866.2,993.6,8866.2,1002.6,8872,1002.6L8872,1002.6z"/>
		</g>
	</g>
	<g>
		<g>
			<path class="st2" d="M8080.8,366c5.8,0,5.8-9,0-9C8075,357,8075,366,8080.8,366L8080.8,366z"/>
		</g>
	</g>
	<g>
		<g>
			<path class="st2" d="M9181.2,193.2c5.8,0,5.8-9,0-9C9175.4,184.2,9175.4,193.2,9181.2,193.2L9181.2,193.2z"/>
		</g>
	</g>
	<g>
		<g>
			<path class="st2" d="M9254,848c5.8,0,5.8-9,0-9C9248.2,839,9248.2,848,9254,848L9254,848z"/>
		</g>
	</g>
	<g>
		<g>
			<path class="st2" d="M7416.8,275c5.8,0,5.8-9,0-9C7411.1,266,7411,275,7416.8,275L7416.8,275z"/>
		</g>
	</g>
	<g>
		<g>
			<path class="st2" d="M7180.4,784.3c5.8,0,5.8-9,0-9C7174.6,775.3,7174.6,784.3,7180.4,784.3L7180.4,784.3z"/>
		</g>
	</g>
	<g>
		<g>
			<path class="st2" d="M6098.1,129.5c5.8,0,5.8-9,0-9C6092.3,120.5,6092.3,129.5,6098.1,129.5L6098.1,129.5z"/>
		</g>
	</g>
	<g>
		<g>
			<path class="st2" d="M6561.9,165.9c5.8,0,5.8-9,0-9C6556.1,156.9,6556.1,165.9,6561.9,165.9L6561.9,165.9z"/>
		</g>
	</g>
	<g>
		<g>
			<path class="st2" d="M5525.1,120.4c5.8,0,5.8-9,0-9C5519.3,111.4,5519.3,120.4,5525.1,120.4L5525.1,120.4z"/>
		</g>
	</g>
	<g>
		<g>
			<path class="st2" d="M5925.3,911.6c5.8,0,5.8-9,0-9C5919.5,902.6,5919.5,911.6,5925.3,911.6L5925.3,911.6z"/>
		</g>
	</g>
	<g>
		<g>
			<path class="st2" d="M6152.7,520.6c5.8,0,5.8-9,0-9C6146.9,511.6,6146.9,520.6,6152.7,520.6L6152.7,520.6z"/>
		</g>
	</g>
	<g>
		<g>
			<path class="st2" d="M6589.2,938.9c5.8,0,5.8-9,0-9C6583.4,929.9,6583.4,938.9,6589.2,938.9L6589.2,938.9z"/>
		</g>
	</g>
	<g>
		<g>
			<path class="st2" d="M6816.6,475.1c5.8,0,5.8-9,0-9C6810.8,466.1,6810.8,475.1,6816.6,475.1L6816.6,475.1z"/>
		</g>
	</g>
	<g>
		<g>
			<path class="st2" d="M4806.7,920.7c5.8,0,5.8-9,0-9C4800.9,911.7,4800.9,920.7,4806.7,920.7L4806.7,920.7z"/>
		</g>
	</g>
	<g>
		<g>
			<path class="st2" d="M4970.4,147.7c5.8,0,5.8-9,0-9C4964.6,138.7,4964.6,147.7,4970.4,147.7L4970.4,147.7z"/>
		</g>
	</g>
	<g>
		<g>
			<path class="st2" d="M8650.3,757c5.8,0,5.8-9,0-9C8644.6,748,8644.5,757,8650.3,757L8650.3,757z"/>
		</g>
	</g>
	<g>
		<g>
			<path class="st2" d="M8868.6,275c5.8,0,5.8-9,0-9C8862.8,266,8862.8,275,8868.6,275L8868.6,275z"/>
		</g>
	</g>
	<g>
		<g>
			<path class="st2" d="M9005,738.8c5.8,0,5.8-9,0-9C8999.3,729.8,8999.2,738.8,9005,738.8L9005,738.8z"/>
		</g>
	</g>
	<g>
		<g>
			<path class="st2" d="M7077,911.6c5.8,0,5.8-9,0-9C7071.2,902.6,7071.2,911.6,7077,911.6L7077,911.6z"/>
		</g>
	</g>
	<g>
		<g>
			<path class="st2" d="M1210.9,957.1c5.8,0,5.8-9,0-9C1205.1,948.1,1205.1,957.1,1210.9,957.1L1210.9,957.1z"/>
		</g>
	</g>
	<g>
		<g>
			<path class="st2" d="M5421.7,566c5.8,0,5.8-9,0-9C5415.9,557,5415.9,566,5421.7,566L5421.7,566z"/>
		</g>
	</g>
	<g>
		<g>
			<path class="st2" d="M5221.6,911.6c5.8,0,5.8-9,0-9C5215.8,902.6,5215.8,911.6,5221.6,911.6L5221.6,911.6z"/>
		</g>
	</g>
	<g>
		<g>
			<path class="st2" d="M2402.3,184.1c5.8,0,5.8-9,0-9C2396.5,175.1,2396.5,184.1,2402.3,184.1L2402.3,184.1z"/>
		</g>
	</g>
	<g>
		<g>
			<path class="st2" d="M1501.9,156.8c5.8,0,5.8-9,0-9C1496.1,147.8,1496.1,156.8,1501.9,156.8L1501.9,156.8z"/>
		</g>
	</g>
	<g>
		<g>
			<path class="st2" d="M8559.4,175c5.8,0,5.8-9,0-9C8553.6,166,8553.6,175,8559.4,175L8559.4,175z"/>
		</g>
	</g>
	<g>
		<g>
			<path class="st2" d="M8168.3,1029.9c5.8,0,5.8-9,0-9C8162.5,1020.9,8162.5,1029.9,8168.3,1029.9L8168.3,1029.9z"/>
		</g>
	</g>
	<g>
		<g>
			<path class="st2" d="M7468,1011.7c5.8,0,5.8-9,0-9C7462.2,1002.7,7462.2,1011.7,7468,1011.7L7468,1011.7z"/>
		</g>
	</g>
	<g>
		<g>
			<path class="st2" d="M5658.2,120.4c5.8,0,5.8-9,0-9C5652.4,111.4,5652.4,120.4,5658.2,120.4L5658.2,120.4z"/>
		</g>
	</g>
	<g>
		<g>
			<path class="st2" d="M6012.9,893.5c5.8,0,5.8-9,0-9C6007.1,884.5,6007.1,893.5,6012.9,893.5L6012.9,893.5z"/>
		</g>
	</g>
	<g>
		<g>
			<path class="st2" d="M2966.1,502.4c5.8,0,5.8-9,0-9C2960.3,493.4,2960.3,502.4,2966.1,502.4L2966.1,502.4z"/>
		</g>
	</g>
	<g>
		<g>
			<path class="st2" d="M2274.9,929.8c5.8,0,5.8-9,0-9C2269.1,920.8,2269.1,929.8,2274.9,929.8L2274.9,929.8z"/>
		</g>
	</g>
	<g>
		<g>
			<path class="st2" d="M2747.9,902.6c5.8,0,5.8-9,0-9C2742.1,893.6,2742.1,902.6,2747.9,902.6L2747.9,902.6z"/>
		</g>
	</g>
	<g>
		<g>
			<path class="st2" d="M8332,693.4c5.8,0,5.8-9,0-9C8326.2,684.4,8326.2,693.4,8332,693.4L8332,693.4z"/>
		</g>
	</g>
	<g>
		<g>
			<path class="st2" d="M665.2,184.1c5.8,0,5.8-9,0-9C659.4,175.1,659.4,184.1,665.2,184.1L665.2,184.1z"/>
		</g>
	</g>
	<g>
		<g>
			<path class="st2" d="M419.6,566c5.8,0,5.8-9,0-9C413.8,557,413.8,566,419.6,566L419.6,566z"/>
		</g>
	</g>
	<g>
		<g>
			<path class="st2" d="M8322.9,220.4c5.8,0,5.8-9,0-9C8317.1,211.4,8317.1,220.4,8322.9,220.4L8322.9,220.4z"/>
		</g>
	</g>
	<g>
		<g>
			<path class="st2" d="M7850,129.5c5.8,0,5.8-9,0-9C7844.2,120.5,7844.2,129.5,7850,129.5L7850,129.5z"/>
		</g>
	</g>
	<g>
		<g>
			<path class="st2" d="M6504,948c5.8,0,5.8-9,0-9C6498.2,939,6498.2,948,6504,948L6504,948z"/>
		</g>
	</g>
	<g>
		<g>
			<path class="st2" d="M4021.1,320.5c5.8,0,5.8-9,0-9C4015.3,311.5,4015.3,320.5,4021.1,320.5L4021.1,320.5z"/>
		</g>
	</g>
	<g>
		<g>
			<path class="st2" d="M9332.5,502.4c5.8,0,5.8-9,0-9C9326.7,493.4,9326.7,502.4,9332.5,502.4L9332.5,502.4z"/>
		</g>
	</g>
</g>
<g id="si_moje_hvězda_2pt">
	<g>
		<g>
			<path class="st2" d="M4752.1,235.6c1.9,0,1.9-3,0-3C4750.2,232.6,4750.2,235.6,4752.1,235.6L4752.1,235.6z"/>
		</g>
	</g>
	<g>
		<g>
			<path class="st2" d="M3424.3,81c1.9,0,1.9-3,0-3C3422.3,78,3422.3,81,3424.3,81L3424.3,81z"/>
		</g>
	</g>
	<g>
		<g>
			<path class="st2" d="M2387.5,872.3c1.9,0,1.9-3,0-3C2385.5,869.3,2385.5,872.3,2387.5,872.3L2387.5,872.3z"/>
		</g>
	</g>
	<g>
		<g>
			<path class="st2" d="M6289.1,490.3c1.9,0,1.9-3,0-3C6287.2,487.3,6287.2,490.3,6289.1,490.3L6289.1,490.3z"/>
		</g>
	</g>
	<g>
		<g>
			<path class="st2" d="M8189.9,717.7c1.9,0,1.9-3,0-3C8188,714.7,8188,717.7,8189.9,717.7L8189.9,717.7z"/>
		</g>
	</g>
	<g>
		<g>
			<path class="st2" d="M9572.3,326.6c1.9,0,1.9-3,0-3C9570.4,323.6,9570.4,326.6,9572.3,326.6L9572.3,326.6z"/>
		</g>
	</g>
	<g>
		<g>
			<path class="st2" d="M7516.9,908.6c1.9,0,1.9-3,0-3C7515,905.6,7515,908.6,7516.9,908.6L7516.9,908.6z"/>
		</g>
	</g>
	<g>
		<g>
			<path class="st2" d="M7344.1,444.8c1.9,0,1.9-3,0-3C7342.2,441.8,7342.2,444.8,7344.1,444.8L7344.1,444.8z"/>
		</g>
	</g>
	<g>
		<g>
			<path class="st2" d="M5607,954.1c1.9,0,1.9-3,0-3C5605.1,951.1,5605.1,954.1,5607,954.1L5607,954.1z"/>
		</g>
	</g>
	<g>
		<g>
			<path class="st2" d="M5607,290.2c1.9,0,1.9-3,0-3C5605.1,287.2,5605.1,290.2,5607,290.2L5607,290.2z"/>
		</g>
	</g>
	<g>
		<g>
			<path class="st2" d="M3915.4,826.8c1.9,0,1.9-3,0-3C3913.4,823.8,3913.4,826.8,3915.4,826.8L3915.4,826.8z"/>
		</g>
	</g>
	<g>
		<g>
			<path class="st2" d="M3178.7,190.2c1.9,0,1.9-3,0-3C3176.8,187.2,3176.8,190.2,3178.7,190.2L3178.7,190.2z"/>
		</g>
	</g>
	<g>
		<g>
			<path class="st2" d="M1587.1,363c1.9,0,1.9-3,0-3C1585.2,360,1585.2,363,1587.1,363L1587.1,363z"/>
		</g>
	</g>
	<g>
		<g>
			<path class="st2" d="M3797.1,526.7c1.9,0,1.9-3,0-3C3795.2,523.7,3795.2,526.7,3797.1,526.7L3797.1,526.7z"/>
		</g>
	</g>
	<g>
		<g>
			<path class="st2" d="M5807.1,426.6c1.9,0,1.9-3,0-3C5805.1,423.6,5805.1,426.6,5807.1,426.6L5807.1,426.6z"/>
		</g>
	</g>
	<g>
		<g>
			<path class="st2" d="M7762.4,190.2c1.9,0,1.9-3,0-3C7760.5,187.2,7760.5,190.2,7762.4,190.2L7762.4,190.2z"/>
		</g>
	</g>
	<g>
		<g>
			<path class="st2" d="M6807.5,863.2c1.9,0,1.9-3,0-3C6805.6,860.2,6805.6,863.2,6807.5,863.2L6807.5,863.2z"/>
		</g>
	</g>
	<g>
		<g>
			<path class="st2" d="M5688.8,1081.4c1.9,0,1.9-3,0-3C5686.9,1078.4,5686.9,1081.4,5688.8,1081.4L5688.8,1081.4z"/>
		</g>
	</g>
	<g>
		<g>
			<path class="st2" d="M4852.1,435.7c1.9,0,1.9-3,0-3C4850.2,432.7,4850.2,435.7,4852.1,435.7L4852.1,435.7z"/>
		</g>
	</g>
	<g>
		<g>
			<path class="st2" d="M2114.6,708.6c1.9,0,1.9-3,0-3C2112.7,705.6,2112.7,708.6,2114.6,708.6L2114.6,708.6z"/>
		</g>
	</g>
	<g>
		<g>
			<path class="st2" d="M650.4,535.8c1.9,0,1.9-3,0-3C648.4,532.8,648.4,535.8,650.4,535.8L650.4,535.8z"/>
		</g>
	</g>
	<g>
		<g>
			<path class="st2" d="M2260.1,126.5c1.9,0,1.9-3,0-3C2258.2,123.5,2258.2,126.5,2260.1,126.5L2260.1,126.5z"/>
		</g>
	</g>
	<g>
		<g>
			<path class="st2" d="M4806.7,590.3c1.9,0,1.9-3,0-3C4804.7,587.3,4804.7,590.3,4806.7,590.3L4806.7,590.3z"/>
		</g>
	</g>
	<g>
		<g>
			<path class="st2" d="M7626,317.5c1.9,0,1.9-3,0-3C7624.1,314.5,7624.1,317.5,7626,317.5L7626,317.5z"/>
		</g>
	</g>
	<g>
		<g>
			<path class="st2" d="M7353.2,869.3c-3,0-6.1,0-9.1,0c-1.9,0-1.9,3,0,3c3,0,6.1,0,9.1,0C7355.1,872.3,7355.1,869.3,7353.2,869.3
				L7353.2,869.3z"/>
		</g>
	</g>
	<g>
		<g>
			<path class="st2" d="M7025.8,390.2c1.9,0,1.9-3,0-3C7023.8,387.2,7023.8,390.2,7025.8,390.2L7025.8,390.2z"/>
		</g>
	</g>
	<g>
		<g>
			<path class="st2" d="M6170.9,881.4c1.9,0,1.9-3,0-3C6168.9,878.4,6168.9,881.4,6170.9,881.4L6170.9,881.4z"/>
		</g>
	</g>
	<g>
		<g>
			<path class="st2" d="M5843.5,317.5c1.9,0,1.9-3,0-3C5841.5,314.5,5841.5,317.5,5843.5,317.5L5843.5,317.5z"/>
		</g>
	</g>
	<g>
		<g>
			<path class="st2" d="M2614.8,235.6c1.9,0,1.9-3,0-3C2612.9,232.6,2612.9,235.6,2614.8,235.6L2614.8,235.6z"/>
		</g>
	</g>
	<g>
		<g>
			<path class="st2" d="M2578.4,681.3c1.9,0,1.9-3,0-3C2576.5,678.3,2576.5,681.3,2578.4,681.3L2578.4,681.3z"/>
		</g>
	</g>
	<g>
		<g>
			<path class="st2" d="M1105.1,217.4c1.9,0,1.9-3,0-3C1103.2,214.4,1103.2,217.4,1105.1,217.4L1105.1,217.4z"/>
		</g>
	</g>
	<g>
		<g>
			<path class="st2" d="M659.5,672.2c1.9,0,1.9-3,0-3C657.5,669.2,657.5,672.2,659.5,672.2L659.5,672.2z"/>
		</g>
	</g>
	<g>
		<g>
			<path class="st2" d="M395.7,872.3c1.9,0,1.9-3,0-3C393.8,869.3,393.8,872.3,395.7,872.3L395.7,872.3z"/>
		</g>
	</g>
	<g>
		<g>
			<path class="st2" d="M4843,835.9c1.9,0,1.9-3,0-3C4841.1,832.9,4841.1,835.9,4843,835.9L4843,835.9z"/>
		</g>
	</g>
	<g>
		<g>
			<path class="st2" d="M3478.8,344.8c1.9,0,1.9-3,0-3C3476.9,341.8,3476.9,344.8,3478.8,344.8L3478.8,344.8z"/>
		</g>
	</g>
	<g>
		<g>
			<path class="st2" d="M7871.6,663.1c1.9,0,1.9-3,0-3C7869.6,660.1,7869.6,663.1,7871.6,663.1L7871.6,663.1z"/>
		</g>
	</g>
	<g>
		<g>
			<path class="st2" d="M8808.3,763.1c1.9,0,1.9-3,0-3C8806.4,760.1,8806.4,763.1,8808.3,763.1L8808.3,763.1z"/>
		</g>
	</g>
	<g>
		<g>
			<path class="st2" d="M9081.2,363c1.9,0,1.9-3,0-3C9079.2,360,9079.2,363,9081.2,363L9081.2,363z"/>
		</g>
	</g>
	<g>
		<g>
			<path class="st2" d="M9654.1,317.5c1.9,0,1.9-3,0-3C9652.2,314.5,9652.2,317.5,9654.1,317.5L9654.1,317.5z"/>
		</g>
	</g>
	<g>
		<g>
			<path class="st2" d="M4633.9,144.7c1.9,0,1.9-3,0-3C4631.9,141.7,4631.9,144.7,4633.9,144.7L4633.9,144.7z"/>
		</g>
	</g>
	<g>
		<g>
			<path class="st2" d="M4124.5,899.6c1.9,0,1.9-3,0-3C4122.6,896.6,4122.6,899.6,4124.5,899.6L4124.5,899.6z"/>
		</g>
	</g>
	<g>
		<g>
			<path class="st2" d="M1687.2,881.4c1.9,0,1.9-3,0-3C1685.2,878.4,1685.2,881.4,1687.2,881.4L1687.2,881.4z"/>
		</g>
	</g>
	<g>
		<g>
			<path class="st2" d="M941.4,381.2c1.9,0,1.9-3,0-3C939.5,378.2,939.5,381.2,941.4,381.2L941.4,381.2z"/>
		</g>
	</g>
	<g>
		<g>
			<path class="st2" d="M1014.1,835.9c1.9,0,1.9-3,0-3C1012.2,832.9,1012.2,835.9,1014.1,835.9L1014.1,835.9z"/>
		</g>
	</g>
	<g>
		<g>
			<path class="st2" d="M7435,426.6c1.9,0,1.9-3,0-3C7433.1,423.6,7433.1,426.6,7435,426.6L7435,426.6z"/>
		</g>
	</g>
	<g>
		<g>
			<path class="st2" d="M5225,826.8c1.9,0,1.9-3,0-3C5223.1,823.8,5223.1,826.8,5225,826.8L5225,826.8z"/>
		</g>
	</g>
	<g>
		<g>
			<path class="st2" d="M4433.8,217.4c1.9,0,1.9-3,0-3C4431.8,214.4,4431.8,217.4,4433.8,217.4L4433.8,217.4z"/>
		</g>
	</g>
	<g>
		<g>
			<path class="st2" d="M4297.3,772.2c1.9,0,1.9-3,0-3C4295.4,769.2,4295.4,772.2,4297.3,772.2L4297.3,772.2z"/>
		</g>
	</g>
	<g>
		<g>
			<path class="st2" d="M3115,644.9c1.9,0,1.9-3,0-3C3113.1,641.9,3113.1,644.9,3115,644.9L3115,644.9z"/>
		</g>
	</g>
	<g>
		<g>
			<path class="st2" d="M3142.3,945c1.9,0,1.9-3,0-3C3140.4,942,3140.4,945,3142.3,945L3142.3,945z"/>
		</g>
	</g>
	<g>
		<g>
			<path class="st2" d="M8571.9,399.3c1.9,0,1.9-3,0-3C8569.9,396.3,8569.9,399.3,8571.9,399.3L8571.9,399.3z"/>
		</g>
	</g>
	<g>
		<g>
			<path class="st2" d="M9235.8,108.3c1.9,0,1.9-3,0-3C9233.9,105.3,9233.9,108.3,9235.8,108.3L9235.8,108.3z"/>
		</g>
	</g>
	<g>
		<g>
			<path class="st2" d="M9672.3,854.1c1.9,0,1.9-3,0-3C9670.4,851.1,9670.4,854.1,9672.3,854.1L9672.3,854.1z"/>
		</g>
	</g>
	<g>
		<g>
			<path class="st2" d="M7889.8,1017.8c1.9,0,1.9-3,0-3C7887.8,1014.8,7887.8,1017.8,7889.8,1017.8L7889.8,1017.8z"/>
		</g>
	</g>
	<g>
		<g>
			<path class="st2" d="M6507.4,99.2c1.9,0,1.9-3,0-3C6505.4,96.2,6505.4,99.2,6507.4,99.2L6507.4,99.2z"/>
		</g>
	</g>
	<g>
		<g>
			<path class="st2" d="M259.3,217.4c1.9,0,1.9-3,0-3C257.4,214.4,257.4,217.4,259.3,217.4L259.3,217.4z"/>
		</g>
	</g>
	<g>
		<g>
			<path class="st2" d="M268.4,744.9c1.9,0,1.9-3,0-3C266.4,741.9,266.4,744.9,268.4,744.9L268.4,744.9z"/>
		</g>
	</g>
	<g>
		<g>
			<path class="st2" d="M1787.2,153.8c1.9,0,1.9-3,0-3C1785.3,150.8,1785.3,153.8,1787.2,153.8L1787.2,153.8z"/>
		</g>
	</g>
	<g>
		<g>
			<path class="st2" d="M2724,935.9c1.9,0,1.9-3,0-3C2722,932.9,2722,935.9,2724,935.9L2724,935.9z"/>
		</g>
	</g>
	<g>
		<g>
			<path class="st2" d="M2796.7,517.6c1.9,0,1.9-3,0-3C2794.8,514.6,2794.8,517.6,2796.7,517.6L2796.7,517.6z"/>
		</g>
	</g>
	<g>
		<g>
			<path class="st2" d="M1314.3,426.6c1.9,0,1.9-3,0-3C1312.3,423.6,1312.3,426.6,1314.3,426.6L1314.3,426.6z"/>
		</g>
	</g>
	<g>
		<g>
			<path class="st2" d="M3351.5,435.7c1.9,0,1.9-3,0-3C3349.6,432.7,3349.6,435.7,3351.5,435.7L3351.5,435.7z"/>
		</g>
	</g>
	<g>
		<g>
			<path class="st2" d="M4743,463c1.9,0,1.9-3,0-3C4741.1,460,4741.1,463,4743,463L4743,463z"/>
		</g>
	</g>
	<g>
		<g>
			<path class="st2" d="M2005.5,726.8c1.9,0,1.9-3,0-3C2003.5,723.8,2003.5,726.8,2005.5,726.8L2005.5,726.8z"/>
		</g>
	</g>
	<g>
	</g>
	<g>
	</g>
	<g>
	</g>
	<g>
	</g>
	<g>
	</g>
</g>
</svg>
