<?xml version="1.0" encoding="utf-8"?>
<!-- Generator: Adobe Illustrator 23.0.3, SVG Export Plug-In . SVG Version: 6.00 Build 0)  -->
<svg version="1.1"
	 id="svg2" inkscape:export-filename="F:\Dokument\SKOLA\propagace\logo\final\logofinal2.png" inkscape:export-xdpi="100.09633" inkscape:export-ydpi="100.09633" inkscape:version="0.92.3 (2405546, 2018-03-11)" sodipodi:docname="logofinal.svg" sodipodi:version="0.32" xmlns:cc="http://creativecommons.org/ns#" xmlns:dc="http://purl.org/dc/elements/1.1/" xmlns:inkscape="http://www.inkscape.org/namespaces/inkscape" xmlns:rdf="http://www.w3.org/1999/02/22-rdf-syntax-ns#" xmlns:sodipodi="http://sodipodi.sourceforge.net/DTD/sodipodi-0.dtd" xmlns:svg="http://www.w3.org/2000/svg"
	 xmlns="http://www.w3.org/2000/svg" xmlns:xlink="http://www.w3.org/1999/xlink" x="0px" y="0px" viewBox="0 0 595.3 841.9"
	 style="enable-background:new 0 0 595.3 841.9;" xml:space="preserve">
<style type="text/css">
	.st0{fill:#FFFFFF;}
	.st1{fill:#4299D3;}
	.st2{fill:#C83492;}
	.st3{fill:#F16422;}
	.st4{fill:#51B048;}
	.st5{fill:url(#path3132_2_);}
	.st6{font-family:'Calibri-Bold';}
	.st7{font-size:38px;}
</style>
<defs>
	
	
		<inkscape:perspective  id="perspective2842" inkscape:persp3d-origin="396.85039 : 374.17322 : 1" inkscape:vp_x="0 : 561.25983 : 1" inkscape:vp_y="0 : 1066.6667 : 0" inkscape:vp_z="793.70078 : 561.25983 : 1" sodipodi:type="inkscape:persp3d">
		</inkscape:perspective>
</defs>
<sodipodi:namedview  bordercolor="#666666" borderopacity="1.0" gridtolerance="10.0" guidetolerance="10.0" id="base" inkscape:current-layer="svg2" inkscape:cx="320.4372" inkscape:cy="750.8426" inkscape:guide-bbox="true" inkscape:pageopacity="1" inkscape:pageshadow="2" inkscape:window-height="1177" inkscape:window-maximized="1" inkscape:window-width="1920" inkscape:window-x="-8" inkscape:window-y="-8" inkscape:zoom="0.93542562" objecttolerance="10.0" pagecolor="#e6e6e6" showgrid="false" showguides="true">
	</sodipodi:namedview>
<g id="flowRoot1795" transform="matrix(0.691571,0,0,0.691571,137.0241,112.59264)">
</g>
<g id="g1904" inkscape:export-xdpi="376.32001" inkscape:export-ydpi="376.32001">
</g>
<g id="flowRoot1795-6" transform="matrix(0.691571,0,0,0.691571,140.8037,459.07477)">
</g>
<g>
	<rect id="rect3048_1_" x="160.4" y="425.7" class="st0" width="0.2" height="0.7"/>
	<path id="path2186_1_" inkscape:connector-curvature="0" sodipodi:nodetypes="ccccccccccccccccc" class="st0" d="M205.1,328
		l-54.4,94.3l-0.1,0.2l0.1,0.2l52.8,91.6l0.1,0.2l0.2,0h105.7l0.2,0l0.1-0.2l54.4-94.3l0.3-0.6l-0.7,0H258.5L205.8,328l-0.3-0.6
		L205.1,328z"/>
	<path id="path4212_1_" inkscape:connector-curvature="0" sodipodi:nodetypes="cccccccccc" class="st1" d="M205.1,338.7l-46.6,80.9
		l-0.3,0.6l0.7,0h93.3l0.7,0l-0.4-0.6l-46.7-80.9l-0.3-0.6L205.1,338.7z"/>
	<path id="path6176_1_" inkscape:connector-curvature="0" sodipodi:nodetypes="cccccccccc" class="st2" d="M158.8,424.8l-0.7,0
		l0.4,0.6l46.6,80.9l0.3,0.6l0.3-0.6l46.7-80.9l0.4-0.6l-0.7,0L158.8,424.8z"/>
	<path id="path2196_1_" inkscape:connector-curvature="0" sodipodi:nodetypes="cccccccccc" class="st3" d="M256.4,427.7l-46.6,80.8
		l-0.4,0.6l0.7,0h93.2l0.7,0l-0.4-0.6l-46.6-80.8l-0.4-0.6L256.4,427.7z"/>
	<path id="path2204_1_" inkscape:connector-curvature="0" sodipodi:nodetypes="cccccccccc" class="st4" d="M261.4,424.8l-0.7,0
		l0.3,0.6l46.7,80.9l0.3,0.6l0.3-0.6l46.6-80.9l0.3-0.6l-0.7,0L261.4,424.8z"/>
	
		<radialGradient id="path3132_2_" cx="-376.8773" cy="1151.2439" r="37.5513" gradientTransform="matrix(1.8564 0 0 -2.1439 954.4221 2893.4038)" gradientUnits="userSpaceOnUse">
		<stop  offset="0" style="stop-color:#FFFFFF"/>
		<stop  offset="0.5246" style="stop-color:#FFFFFF;stop-opacity:0.8367"/>
		<stop  offset="1" style="stop-color:#FFFFFF;stop-opacity:0"/>
	</radialGradient>
	<ellipse id="path3132_1_" class="st5" cx="254.8" cy="425.2" rx="69.7" ry="80.5"/>
	<path id="path1839_1_" inkscape:connector-curvature="0" class="st0" d="M236.5,381.1c-16.5,8.1-27.9,25-27.9,44.6
		c0,27.4,22.2,49.6,49.6,49.6s49.6-22.2,49.6-49.6c0-2.1-0.1-4.3-0.4-6.3h-12.6c0.4,2.1,0.5,4.2,0.5,6.3c0,20.5-16.7,37.2-37.2,37.2
		S221,446.3,221,425.7c0-15,8.9-27.9,21.7-33.8L236.5,381.1z"/>
	<text transform="matrix(1 0 0 1 268.745 351.101)"><tspan x="0" y="0" class="st6 st7">SPŠ a VOŠ </tspan><tspan x="0" y="45.6" class="st6 st7">Chomutov</tspan></text>
</g>
</svg>
