<svg id="Vrstva_1" data-name="Vrstva 1" xmlns="http://www.w3.org/2000/svg" viewBox="0 0 2383.94 3370.39"><defs><style>.cls-1{fill:#fff;}</style></defs><title>Kreslicí plátno 1</title><path class="cls-1" d="M1916.08,3373.28H471.81V-.07H1916.08ZM1428.21,2357.42c-16.19,0-31.08-.09-46,0-9.93.08-19.64,1.28-28.18,7.09-13.34,9.07-18.54,22-18.53,37.71q0,376.54,0,753.1a48.09,48.09,0,0,0,.29,6.47c1.46,11,8.7,17.69,19.81,18.22,5.76.27,11.54.12,17.31.12q133.08,0,266.18,0c17.47,0,24.68-7.49,24.66-25.24,0-24.25,0-48.51,0-72.76q0-82.47,0-164.93,0-85.73-.06-171.46,0-77.09,0-154.18,0-65.18.15-130.37c0-20.65.11-41.3-.25-61.94-.4-23.21-16.35-38.91-35.25-40.78-7.86-.78-15.79-.84-23.69-.95-11-.15-21.94,0-33.7,0,0-6.85,0-12.79,0-18.73.1-29,.3-58,.29-87.06,0-34-.26-68.11-.27-102.17,0-28.77.27-57.55.27-86.32,0-31.18-.25-62.36-.25-93.54,0-27.35.28-54.69.27-82,0-40.31-.24-80.62-.26-120.93,0-27.11.29-54.22.28-81.32,0-33.82-.3-67.63-.32-101.45,0-29.25.27-58.5.27-87.75,0-29.49-.26-59-.26-88.47,0-29,.27-58,.26-87,0-35.5-.26-71-.27-106.49,0-27.34.28-54.68.27-82,0-44.63-.22-89.27-.24-133.9,0-22.79.25-45.58.26-68.37,0-21.1-.25-42.21-.26-63.31,0-24.2.17-48.41.17-72.62,0-25.9-.13-51.81-.13-77.71,0-19.18.21-38.36.19-57.55,0-25.41-.22-50.83-.24-76.24,0-19.42.22-38.84.24-58.26,0-26.14-.08-52.28-.09-78.42,0-18.95.12-37.9.1-56.84,0-25.66-.19-51.32-.21-77,0-19.42.15-38.83.14-58.25,0-25.42-.12-50.84-.17-76.27,0-20.39-.33-40.79,0-61.18.25-13.45-7.92-23.75-23.68-23.53-32,.45-63.94.06-95.92.17-15.85,0-23.34,7.72-23.34,23.55q0,72.87,0,145.72a64.75,64.75,0,0,1-.7,10c-1.28,8.07-6,13.36-13.63,16.22-9.1,3.43-16.2-.79-23.38-5.63-16.34-11-32.25-22.78-49.42-32.29a422.25,422.25,0,0,0-80.6-34.53A435.28,435.28,0,0,0,1176,198.6c-7.63-.77-15.36-1.2-22.84-2.78-10-2.11-15.92-10.21-15.68-20.45a146.93,146.93,0,0,1,1.6-16.46c2.06-15.16-5.08-24.95-20.14-26.63-23.12-2.57-46.28-4.77-69.41-7.2Q998,119.67,946.43,114.14q-39.37-4.2-78.73-8.55c-16.3-1.83-32.66-2.65-48.78.6a122.69,122.69,0,0,0-61.66,32.29c-21,20.08-33.06,44.78-36.94,73.15-3.74,27.34-6,54.88-8.83,82.34-1.32,12.61,6,22.2,18.65,23.66,24.57,2.83,49.17,5.36,73.76,8,29.36,3.13,58.72,6.18,88.08,9.32,29.83,3.19,59.65,6.49,89.48,9.64,27.69,2.93,55.4,5.73,83.1,8.58,11.23,1.15,22.43,2.68,33.69,3.29s18-4.92,21-15.66a40.33,40.33,0,0,0,1.37-5.59c1.29-9.64,10.64-17.71,22.5-17.21a307.33,307.33,0,0,1,69.61,10.69c44.09,12.28,83.9,33,118.83,62.68,39.57,33.6,68.7,74.77,88.15,122.88a117,117,0,0,1,8.67,46.25c-.63,46.89-.23,93.78-.22,140.67V2357.42Z"/><path d="M1428.21,2357.42V701.15c0-46.89-.41-93.78.22-140.67a117,117,0,0,0-8.67-46.25c-19.45-48.11-48.58-89.28-88.15-122.88-34.93-29.66-74.74-50.4-118.83-62.68A307.33,307.33,0,0,0,1143.17,318c-11.86-.5-21.21,7.57-22.5,17.21a40.33,40.33,0,0,1-1.37,5.59c-3,10.74-9.91,16.26-21,15.66s-22.46-2.14-33.69-3.29c-27.7-2.85-55.41-5.65-83.1-8.58-29.83-3.15-59.65-6.45-89.48-9.64-29.36-3.14-58.72-6.19-88.08-9.32-24.59-2.62-49.19-5.15-73.76-8-12.66-1.46-20-11.05-18.65-23.66,2.88-27.46,5.09-55,8.83-82.34,3.88-28.37,15.92-53.07,36.94-73.15a122.69,122.69,0,0,1,61.66-32.29c16.12-3.25,32.48-2.43,48.78-.6Q907,110,946.43,114.14q51.54,5.52,103.11,10.94c23.13,2.43,46.29,4.63,69.41,7.2,15.06,1.68,22.2,11.47,20.14,26.63a146.93,146.93,0,0,0-1.6,16.46c-.24,10.24,5.72,18.34,15.68,20.45,7.48,1.58,15.21,2,22.84,2.78A435.28,435.28,0,0,1,1260.44,216a422.25,422.25,0,0,1,80.6,34.53c17.17,9.51,33.08,21.31,49.42,32.29,7.18,4.84,14.28,9.06,23.38,5.63,7.6-2.86,12.35-8.15,13.63-16.22a64.75,64.75,0,0,0,.7-10q.06-72.85,0-145.72c0-15.83,7.49-23.5,23.34-23.55,32-.11,64,.28,95.92-.17,15.76-.22,23.93,10.08,23.68,23.53-.37,20.39-.08,40.79,0,61.18.05,25.43.16,50.85.17,76.27,0,19.42-.16,38.83-.14,58.25,0,25.66.18,51.32.21,77,0,18.94-.1,37.89-.1,56.84,0,26.14.11,52.28.09,78.42,0,19.42-.24,38.84-.24,58.26,0,25.41.22,50.83.24,76.24,0,19.19-.19,38.37-.19,57.55,0,25.9.14,51.81.13,77.71,0,24.21-.19,48.42-.17,72.62,0,21.1.26,42.21.26,63.31,0,22.79-.28,45.58-.26,68.37,0,44.63.22,89.27.24,133.9,0,27.34-.28,54.68-.27,82,0,35.49.26,71,.27,106.49,0,29-.26,58-.26,87,0,29.49.26,59,.26,88.47,0,29.25-.28,58.5-.27,87.75,0,33.82.3,67.63.32,101.45,0,27.1-.29,54.21-.28,81.32,0,40.31.24,80.62.26,120.93,0,27.34-.27,54.68-.27,82,0,31.18.25,62.36.25,93.54,0,28.77-.28,57.55-.27,86.32,0,34.06.26,68.12.27,102.17,0,29-.19,58-.29,87.06,0,5.94,0,11.88,0,18.73,11.76,0,22.73-.11,33.7,0,7.9.11,15.83.17,23.69.95,18.9,1.87,34.85,17.57,35.25,40.78.36,20.64.26,41.29.25,61.94q0,65.19-.15,130.37,0,77.1,0,154.18,0,85.74.06,171.46,0,82.47,0,164.93c0,24.25-.06,48.51,0,72.76,0,17.75-7.19,25.24-24.66,25.24q-133.1.06-266.18,0c-5.77,0-11.55.15-17.31-.12-11.11-.53-18.35-7.27-19.81-18.22a48.09,48.09,0,0,1-.29-6.47q0-376.55,0-753.1c0-15.67,5.19-28.64,18.53-37.71,8.54-5.81,18.25-7,28.18-7.09C1397.13,2357.33,1412,2357.42,1428.21,2357.42Z"/></svg>