<?xml version="1.0" encoding="UTF-8" standalone="no"?>
<!-- Created with Inkscape (http://www.inkscape.org/) -->

<svg
   xmlns:dc="http://purl.org/dc/elements/1.1/"
   xmlns:cc="http://creativecommons.org/ns#"
   xmlns:rdf="http://www.w3.org/1999/02/22-rdf-syntax-ns#"
   xmlns:svg="http://www.w3.org/2000/svg"
   xmlns="http://www.w3.org/2000/svg"
   xmlns:xlink="http://www.w3.org/1999/xlink"
   xmlns:sodipodi="http://sodipodi.sourceforge.net/DTD/sodipodi-0.dtd"
   xmlns:inkscape="http://www.inkscape.org/namespaces/inkscape"
   id="svg2"
   sodipodi:version="0.32"
   inkscape:version="0.92.3 (2405546, 2018-03-11)"
   width="210mm"
   height="297mm"
   sodipodi:docname="logofinal.svg"
   inkscape:export-filename="F:\Dokument\SKOLA\propagace\logo\final\logofinal2.png"
   inkscape:export-xdpi="100.09633"
   inkscape:export-ydpi="100.09633"
   version="1.1">
  <metadata
     id="metadata7">
    <rdf:RDF>
      <cc:Work
         rdf:about="">
        <dc:format>image/svg+xml</dc:format>
        <dc:type
           rdf:resource="http://purl.org/dc/dcmitype/StillImage" />
        <dc:title></dc:title>
      </cc:Work>
    </rdf:RDF>
  </metadata>
  <defs
     id="defs5">
    <inkscape:perspective
       sodipodi:type="inkscape:persp3d"
       inkscape:vp_x="0 : 561.25983 : 1"
       inkscape:vp_y="0 : 1066.6667 : 0"
       inkscape:vp_z="793.70078 : 561.25983 : 1"
       inkscape:persp3d-origin="396.85039 : 374.17322 : 1"
       id="perspective2842" />
    <linearGradient
       id="linearGradient5072">
      <stop
         style="stop-color:#ffffff;stop-opacity:1;"
         offset="0"
         id="stop5074" />
      <stop
         id="stop5080"
         offset="0.52459013"
         style="stop-color:#ffffff;stop-opacity:0.83673471;" />
      <stop
         style="stop-color:#ffffff;stop-opacity:0;"
         offset="1"
         id="stop5076" />
    </linearGradient>
    <radialGradient
       inkscape:collect="always"
       xlink:href="#linearGradient5072"
       id="radialGradient5078"
       cx="112.46131"
       cy="628.51776"
       fx="112.46131"
       fy="628.51776"
       r="36.338474"
       gradientUnits="userSpaceOnUse" />
    <radialGradient
       inkscape:collect="always"
       xlink:href="#linearGradient5072"
       id="radialGradient5090"
       gradientUnits="userSpaceOnUse"
       cx="112.46131"
       cy="628.51776"
       fx="112.46131"
       fy="628.51776"
       r="36.338474" />
    <radialGradient
       inkscape:collect="always"
       xlink:href="#linearGradient5072"
       id="radialGradient3734"
       gradientUnits="userSpaceOnUse"
       cx="112.46131"
       cy="628.51776"
       fx="112.46131"
       fy="628.51776"
       r="36.338474" />
    <radialGradient
       inkscape:collect="always"
       xlink:href="#linearGradient5072"
       id="radialGradient3747"
       gradientUnits="userSpaceOnUse"
       cx="112.46131"
       cy="628.51776"
       fx="112.46131"
       fy="628.51776"
       r="36.338474" />
    <radialGradient
       inkscape:collect="always"
       xlink:href="#linearGradient5072"
       id="radialGradient1829"
       gradientUnits="userSpaceOnUse"
       cx="112.46131"
       cy="628.51776"
       fx="112.46131"
       fy="628.51776"
       r="36.338474" />
    <radialGradient
       inkscape:collect="always"
       xlink:href="#linearGradient5072"
       id="radialGradient1919"
       gradientUnits="userSpaceOnUse"
       cx="112.46131"
       cy="628.51776"
       fx="112.46131"
       fy="628.51776"
       r="36.338474"
       gradientTransform="matrix(2.416984,0,0,2.791424,-36.519,-1412.5819)" />
  </defs>
  <sodipodi:namedview
     guidetolerance="10.0"
     gridtolerance="10.0"
     objecttolerance="10.0"
     inkscape:window-height="1177"
     inkscape:window-width="1920"
     inkscape:pageshadow="2"
     inkscape:pageopacity="1"
     borderopacity="1.0"
     bordercolor="#666666"
     pagecolor="#e6e6e6"
     id="base"
     inkscape:zoom="0.93542562"
     inkscape:cx="320.4372"
     inkscape:cy="750.8426"
     inkscape:window-x="-8"
     inkscape:window-y="-8"
     inkscape:current-layer="svg2"
     showguides="true"
     inkscape:guide-bbox="true"
     showgrid="false"
     inkscape:window-maximized="1" />
  <rect
     style="fill:#ffffff;fill-opacity:1;stroke:none;stroke-width:0;stroke-miterlimit:4;stroke-dasharray:none;stroke-opacity:1"
     id="rect3048"
     width="0.24576633"
     height="0.81922114"
     x="116.308"
     y="342.4462" />
  <rect
     style="fill:#ffffff;fill-opacity:1;stroke:none;stroke-width:0;stroke-miterlimit:4;stroke-dasharray:none;stroke-opacity:1"
     id="rect3072"
     width="0.24576633"
     height="0.81922114"
     x="116.308"
     y="466.24582" />
  <path
     inkscape:connector-curvature="0"
     style="fill:#ffffff;fill-opacity:1;stroke:none;stroke-width:1px;stroke-linejoin:round;stroke-opacity:1"
     d="m 172.67785,219.36584 -68.53125,118.8125 -0.14602,0.25 0.14602,0.25 66.5625,115.4375 0.14198,0.24625 0.29552,0.004 h 133.1875 l 0.28387,7.2e-4 0.15363,-0.25072 68.53125,-118.8125 0.4379,-0.75182 -0.8754,0.002 h -132.875 l -66.46875,-115.1875 -0.4152,-0.72019 z"
     id="path2186"
     sodipodi:nodetypes="ccccccccccccccccc" />
  <path
     inkscape:connector-curvature="0"
     style="fill:#2d9de9;fill-opacity:1;stroke:none;stroke-width:0.2;stroke-linejoin:miter;stroke-miterlimit:4;stroke-dasharray:none;stroke-opacity:1"
     d="m 172.67785,232.92834 -58.75,101.875 -0.42989,0.7389 0.86739,0.0111 h 117.5 l 0.88317,0.005 -0.44567,-0.75467 -58.78125,-101.875 -0.42173,-0.73568 z"
     id="path4212"
     sodipodi:nodetypes="cccccccccc" />
  <path
     inkscape:connector-curvature="0"
     style="fill:#c83494;fill-opacity:1;stroke:none;stroke-width:0.5;stroke-linejoin:round;stroke-miterlimit:4;stroke-dasharray:none;stroke-opacity:1"
     d="m 114.36535,341.30334 -0.88317,-0.005 0.44567,0.75467 58.75,101.875 0.40625,0.69789 0.4375,-0.69789 58.78125,-101.875 0.44348,-0.75182 -0.88098,0.002 z"
     id="path6176"
     sodipodi:nodetypes="cccccccccc" />
  <path
     inkscape:connector-curvature="0"
     style="color:#000000;display:inline;overflow:visible;visibility:visible;opacity:1;fill:#fd6301;fill-opacity:1;fill-rule:nonzero;stroke:none;stroke-width:0.5;stroke-linecap:butt;stroke-linejoin:round;stroke-miterlimit:4;stroke-dasharray:none;stroke-dashoffset:0;stroke-opacity:1;marker:none;marker-start:none;marker-mid:none;marker-end:none"
     d="m 237.30285,344.95959 -58.71875,101.84375 -0.47136,0.75182 0.90886,-0.002 h 117.46875 l 0.88317,0.0204 -0.44567,-0.77044 -58.75,-101.84375 -0.44865,-0.77595 z"
     id="path2196"
     sodipodi:nodetypes="cccccccccc" />
  <path
     inkscape:connector-curvature="0"
     style="color:#000000;display:inline;overflow:visible;visibility:visible;opacity:1;fill:#50b146;fill-opacity:1;fill-rule:nonzero;stroke:none;stroke-width:0.5;stroke-linecap:butt;stroke-linejoin:round;stroke-miterlimit:4;stroke-dasharray:none;stroke-dashoffset:0;stroke-opacity:1;marker:none;marker-start:none;marker-mid:none;marker-end:none"
     d="m 243.61535,341.30334 -0.85868,0.004 0.42118,0.74625 58.78125,101.875 0.4375,0.75933 0.4375,-0.75933 58.71875,-101.875 0.41003,-0.72952 -0.84753,-0.0205 z"
     id="path2204"
     sodipodi:nodetypes="cccccccccc" />
  <ellipse
     cy="341.87766"
     cx="235.29819"
     style="fill:url(#radialGradient1919);fill-opacity:1;stroke-width:2.59746552"
     id="path3132"
     rx="87.829514"
     ry="101.43609" />
  <path
     inkscape:connector-curvature="0"
     style="fill:#ffffff;fill-opacity:1;stroke:none;stroke-width:1.10000002;stroke-miterlimit:4;stroke-dasharray:none;stroke-opacity:1"
     d="m 212.1891,286.32958 c -20.77636,10.17337 -35.09375,31.54109 -35.09375,56.21875 -1e-5,34.51893 28.01228,62.53125 62.53125,62.53125 34.51895,10e-6 62.53125,-28.01229 62.53125,-62.53125 0,-2.70773 -0.16562,-5.38269 -0.5,-8 h -15.8125 c 0.44852,2.60306 0.6875,5.26949 0.6875,8 1e-5,25.88919 -21.01704,46.90625 -46.90625,46.90625 -25.88923,10e-6 -46.90625,-21.01705 -46.90625,-46.90625 0,-18.88957 11.20528,-35.19315 27.3125,-42.625 z"
     id="path1839" />
  <flowRoot
     style="line-height:0.01%"
     xml:space="preserve"
     id="flowRoot1795"
     transform="matrix(0.691571,0,0,0.691571,137.0241,112.59264)"><flowRegion
       id="flowRegion1797"><rect
         id="rect1799"
         width="351.75677"
         height="137.41249"
         x="85.784706"
         y="152.62029" /></flowRegion><flowPara
       id="flowPara1801"
       style="font-style:italic;font-variant:normal;font-weight:bold;font-stretch:normal;font-size:40px;line-height:125%;font-family:Verdana;text-align:start;writing-mode:lr-tb;text-anchor:start">SPŠ a VOŠ</flowPara><flowPara
       id="flowPara1803"
       style="font-style:italic;font-variant:normal;font-weight:bold;font-stretch:normal;font-size:32px;line-height:125%;font-family:Verdana;text-align:start;writing-mode:lr-tb;text-anchor:start">   Chomutov</flowPara></flowRoot>  <g
     id="g1904"
     inkscape:export-xdpi="376.32001"
     inkscape:export-ydpi="376.32001" />
  <rect
     style="fill:#ffffff;fill-opacity:1;stroke:none;stroke-width:0;stroke-miterlimit:4;stroke-dasharray:none;stroke-opacity:1"
     id="rect3048-6"
     width="0.24576633"
     height="0.81922114"
     x="120.08761"
     y="688.92828" />
  <rect
     style="fill:#ffffff;fill-opacity:1;stroke:none;stroke-width:0;stroke-miterlimit:4;stroke-dasharray:none;stroke-opacity:1"
     id="rect3072-1"
     width="0.24576633"
     height="0.81922114"
     x="120.08761"
     y="812.72791" />
  <path
     inkscape:connector-curvature="0"
     style="fill:#ffffff;fill-opacity:1;stroke:none;stroke-width:1px;stroke-linejoin:round;stroke-opacity:1"
     d="m 176.45745,565.84797 -68.53125,118.8125 -0.14602,0.25 0.14602,0.25 66.5625,115.4375 0.14198,0.24625 0.29552,0.004 h 133.1875 l 0.28387,7.2e-4 0.15363,-0.25072 68.53125,-118.8125 0.4379,-0.75182 -0.8754,0.002 h -132.875 L 177.3012,565.8484 176.886,565.12821 Z"
     id="path2186-3"
     sodipodi:nodetypes="ccccccccccccccccc" />
  <path
     inkscape:connector-curvature="0"
     style="fill:#2d9de9;fill-opacity:1;stroke:none;stroke-width:0.2;stroke-linejoin:miter;stroke-miterlimit:4;stroke-dasharray:none;stroke-opacity:1"
     d="m 176.45745,579.41047 -58.75,101.875 -0.42989,0.7389 0.86739,0.0111 h 117.5 l 0.88317,0.005 -0.44567,-0.75467 -58.78125,-101.875 -0.42173,-0.73568 z"
     id="path4212-8"
     sodipodi:nodetypes="cccccccccc" />
  <path
     inkscape:connector-curvature="0"
     style="fill:#c83494;fill-opacity:1;stroke:none;stroke-width:0.5;stroke-linejoin:round;stroke-miterlimit:4;stroke-dasharray:none;stroke-opacity:1"
     d="m 118.14495,687.78547 -0.88317,-0.005 0.44567,0.75467 58.75,101.875 0.40625,0.69789 0.4375,-0.69789 58.78125,-101.875 0.44348,-0.75182 -0.88098,0.002 z"
     id="path6176-5"
     sodipodi:nodetypes="cccccccccc" />
  <path
     inkscape:connector-curvature="0"
     style="color:#000000;display:inline;overflow:visible;visibility:visible;opacity:1;fill:#fd6301;fill-opacity:1;fill-rule:nonzero;stroke:none;stroke-width:0.5;stroke-linecap:butt;stroke-linejoin:round;stroke-miterlimit:4;stroke-dasharray:none;stroke-dashoffset:0;stroke-opacity:1;marker:none;marker-start:none;marker-mid:none;marker-end:none"
     d="m 241.08245,691.44172 -58.71875,101.84375 -0.47136,0.75182 0.90886,-0.002 h 117.46875 l 0.88317,0.0204 -0.44567,-0.77044 -58.75,-101.84375 -0.44865,-0.77595 z"
     id="path2196-7"
     sodipodi:nodetypes="cccccccccc" />
  <path
     inkscape:connector-curvature="0"
     style="color:#000000;display:inline;overflow:visible;visibility:visible;opacity:1;fill:#50b146;fill-opacity:1;fill-rule:nonzero;stroke:none;stroke-width:0.5;stroke-linecap:butt;stroke-linejoin:round;stroke-miterlimit:4;stroke-dasharray:none;stroke-dashoffset:0;stroke-opacity:1;marker:none;marker-start:none;marker-mid:none;marker-end:none"
     d="m 247.39495,687.78547 -0.85868,0.004 0.42118,0.74625 58.78125,101.875 0.4375,0.75933 0.4375,-0.75933 58.71875,-101.875 0.41003,-0.72952 -0.84753,-0.0205 z"
     id="path2204-5"
     sodipodi:nodetypes="cccccccccc" />
  <path
     inkscape:connector-curvature="0"
     style="fill:#ffffff;fill-opacity:1;stroke:none;stroke-width:1.10000002;stroke-miterlimit:4;stroke-dasharray:none;stroke-opacity:1"
     d="m 215.9687,632.81171 c -20.77636,10.17337 -35.09375,31.54109 -35.09375,56.21875 -1e-5,34.51893 28.01228,62.53125 62.53125,62.53125 34.51895,1e-5 62.53125,-28.01229 62.53125,-62.53125 0,-2.70773 -0.16562,-5.38269 -0.5,-8 h -15.8125 c 0.44852,2.60306 0.6875,5.26949 0.6875,8 10e-6,25.88919 -21.01704,46.90625 -46.90625,46.90625 -25.88923,1e-5 -46.90625,-21.01705 -46.90625,-46.90625 0,-18.88957 11.20528,-35.19315 27.3125,-42.625 z"
     id="path1839-5" />
  <flowRoot
     style="line-height:0.01%"
     xml:space="preserve"
     id="flowRoot1795-6"
     transform="matrix(0.691571,0,0,0.691571,140.8037,459.07477)"><flowRegion
       id="flowRegion1797-1"><rect
         id="rect1799-5"
         width="351.75677"
         height="137.41249"
         x="85.784706"
         y="152.62029" /></flowRegion><flowPara
       id="flowPara1801-5"
       style="font-style:italic;font-variant:normal;font-weight:bold;font-stretch:normal;font-size:40px;line-height:125%;font-family:Verdana;text-align:start;writing-mode:lr-tb;text-anchor:start">SPŠ a VOŠ</flowPara><flowPara
       id="flowPara1803-9"
       style="font-style:italic;font-variant:normal;font-weight:bold;font-stretch:normal;font-size:32px;line-height:125%;font-family:Verdana;text-align:start;writing-mode:lr-tb;text-anchor:start">   Chomutov</flowPara></flowRoot></svg>
